<svg width="445" height="212" viewBox="0 0 445 212" fill="none" xmlns="http://www.w3.org/2000/svg">
<mask id="mask0_82_760" style="mask-type:alpha" maskUnits="userSpaceOnUse" x="0" y="0" width="445" height="212">
<rect width="445" height="211.263" fill="#D9D9D9"></rect>
</mask>
<g mask="url(#mask0_82_760)">
<g filter="url(#filter0_d_82_760)">
<rect x="-6.34196" y="-3.66058" width="144.623" height="191.567" rx="10.7883" transform="matrix(0.963777 -0.26671 0.251129 0.967954 24.0084 56.0513)" fill="#D4E9FF"></rect>
<rect x="-6.34196" y="-3.66058" width="144.623" height="191.567" rx="10.7883" transform="matrix(0.963777 -0.26671 0.251129 0.967954 24.0084 56.0513)" stroke="white" stroke-width="10.4403"></rect>
<path d="M125.075 86.2576C115.133 89.0087 102.605 81.7866 99.991 71.8081L99.9819 71.7731C99.9833 71.7787 99.9844 71.7849 99.9858 71.7905C99.9842 71.7844 99.9822 71.779 99.9806 71.7729L99.9897 71.8079C102.557 81.7997 95.2039 94.5239 85.2622 97.2751C95.2156 94.5206 107.762 101.763 110.356 111.759C107.762 101.763 115.122 89.0118 125.076 86.2573L125.075 86.2576Z" fill="#007AFF" fill-opacity="0.8"></path>
<path d="M79.4087 152.097L81.1474 151.616L83.9874 162.562L82.2487 163.043L79.4087 152.097ZM84.0816 156.141L85.8203 155.66L87.1459 160.77L85.4072 161.251L84.0816 156.141ZM84.8544 155.927L90.1993 154.448L91.3823 159.008L86.0373 160.487L85.7563 159.404L89.3947 158.397L88.7697 155.988L85.1312 156.995L84.8544 155.927ZM80.3424 151.838L85.4459 150.426L86.5786 154.792L81.4751 156.204L81.1856 155.088L84.5504 154.157L83.9967 152.023L80.6319 152.954L80.3424 151.838ZM80.7864 153.483L84.6181 152.423L84.8907 153.474L81.0591 154.534L80.7864 153.483ZM85.3235 157.669L89.7347 156.449L90.0074 157.5L85.5962 158.72L85.3235 157.669ZM87.8701 151.523L91.8145 150.431L92.0871 151.482L88.1428 152.574L87.8701 151.523ZM91.1773 148.84L91.4667 149.956L88.4079 150.802L88.9616 152.937L92.0205 152.09L92.3099 153.206L87.5123 154.533L86.3797 150.168L91.1773 148.84ZM90.7426 148.96L92.5457 148.461L94.8823 157.468C94.997 157.91 95.0289 158.276 94.9779 158.568C94.9377 158.856 94.7948 159.103 94.5494 159.31C94.288 159.544 93.9468 159.737 93.5259 159.888C93.1157 160.036 92.6033 160.189 91.9888 160.348C91.903 160.106 91.7631 159.833 91.569 159.528C91.3778 159.235 91.1938 158.991 91.017 158.797C91.3875 158.718 91.7499 158.629 92.1041 158.531C92.469 158.43 92.7105 158.363 92.8285 158.331C93.0432 158.271 93.1253 158.144 93.075 157.95L90.7426 148.96ZM79.7344 148.697L84.8218 147.289L85.2035 148.76L80.1161 150.168L79.7344 148.697ZM86.2224 146.901L92.4046 145.19L92.7863 146.662L86.6042 148.373L86.2224 146.901ZM79.4835 147.397L81.4006 147.404C81.2739 148.201 81.0572 149.006 80.7504 149.819C80.4543 150.629 80.1303 151.331 79.7783 151.925C79.6323 151.85 79.4459 151.775 79.2191 151.699C78.9924 151.623 78.7656 151.547 78.5389 151.471C78.3121 151.395 78.1085 151.342 77.9279 151.311C78.3289 150.772 78.6645 150.16 78.9349 149.472C79.2132 148.772 79.396 148.08 79.4835 147.397ZM86.052 145.579L88.0048 145.524C87.8917 146.33 87.6843 147.126 87.3826 147.915C87.0782 148.692 86.7404 149.363 86.3693 149.928C86.2153 149.867 86.017 149.812 85.7744 149.763C85.5397 149.701 85.301 149.646 85.0584 149.598C84.813 149.538 84.6014 149.499 84.4236 149.479C84.8516 148.956 85.2062 148.349 85.4873 147.659C85.7763 146.955 85.9646 146.262 86.052 145.579ZM80.665 149.756L82.1456 148.879C82.3951 149.087 82.6531 149.327 82.9195 149.6C83.1858 149.873 83.3995 150.12 83.5604 150.341L81.9916 151.278C81.8549 151.062 81.6628 150.809 81.4151 150.519C81.1674 150.23 80.9174 149.975 80.665 149.756ZM87.8572 147.749L89.3861 146.858C89.6786 147.054 89.9862 147.286 90.3091 147.555C90.6291 147.813 90.8817 148.055 91.0669 148.281L89.4659 149.227C89.3078 149.017 89.078 148.774 88.7767 148.499C88.4725 148.214 88.166 147.963 87.8572 147.749ZM94.2643 145.109L94.9941 143.399C95.3146 143.438 95.6583 143.499 96.025 143.582C96.4025 143.662 96.7613 143.759 97.1014 143.873C97.4494 143.973 97.7371 144.084 97.9643 144.206L97.2078 146.079C96.9993 145.941 96.725 145.814 96.3849 145.701C96.0527 145.573 95.7004 145.457 95.3281 145.352C94.9558 145.247 94.6011 145.166 94.2643 145.109ZM94.7767 149.612L95.466 147.879C95.7972 147.914 96.1448 147.968 96.5088 148.041C96.8807 148.099 97.2353 148.18 97.5726 148.283C97.9179 148.373 98.2027 148.473 98.4271 148.584L97.7071 150.464C97.4934 150.35 97.2165 150.236 96.8764 150.122C96.547 150.006 96.1989 149.905 95.8322 149.822C95.4626 149.728 95.1108 149.658 94.7767 149.612ZM107.448 153.557L108.529 152.27C108.922 152.369 109.334 152.492 109.763 152.639C110.2 152.772 110.617 152.917 111.015 153.073C111.422 153.225 111.76 153.375 112.028 153.52L110.871 154.915C110.625 154.763 110.307 154.603 109.918 154.433C109.529 154.263 109.114 154.107 108.674 153.963C108.242 153.805 107.833 153.67 107.448 153.557ZM107.075 150.125L108.125 148.985C108.522 149.141 108.933 149.328 109.357 149.545C109.793 149.76 110.207 149.98 110.599 150.207C110.988 150.422 111.304 150.641 111.546 150.863L110.456 152.118C110.217 151.907 109.906 151.681 109.521 151.441C109.148 151.198 108.747 150.962 108.32 150.734C107.892 150.505 107.477 150.302 107.075 150.125ZM97.1605 157.669C97.2554 157.192 97.3467 156.635 97.4346 155.999C97.5333 155.359 97.6235 154.687 97.7054 153.983C97.7952 153.265 97.8609 152.565 97.9026 151.883L99.7244 152.454C99.7037 153.083 99.6643 153.73 99.6062 154.393C99.5454 155.045 99.4778 155.693 99.4034 156.338C99.3262 156.971 99.2449 157.589 99.1593 158.19L97.1605 157.669ZM99.2506 142.048L100.957 141.576L102.472 147.413L100.765 147.885L99.2506 142.048ZM104.569 152.17L106.436 151.653L107.573 156.035L105.705 156.552L104.569 152.17ZM97.8406 143.53L102.815 142.153L103.155 143.463L98.1804 144.84L97.8406 143.53ZM98.5784 145.509L103.167 144.24L103.49 145.485L98.9015 146.755L98.5784 145.509ZM103.058 141.826L107.421 140.619L107.82 142.155L103.457 143.362L103.058 141.826ZM98.6232 148.01C99.3041 147.752 100.099 147.446 101.007 147.09C101.924 146.721 102.862 146.346 103.821 145.965L104.235 147.358C103.367 147.737 102.492 148.112 101.61 148.483C100.737 148.84 99.9476 149.168 99.243 149.467L98.6232 148.01ZM100.011 152.894C100.835 152.655 101.775 152.377 102.832 152.062C103.9 151.743 105.027 151.408 106.212 151.057C107.395 150.695 108.567 150.336 109.729 149.98L110.046 151.469C108.909 151.83 107.768 152.198 106.623 152.572C105.475 152.936 104.379 153.28 103.336 153.603C102.3 153.913 101.367 154.194 100.535 154.448L100.011 152.894ZM106.681 140.824L108.307 140.374C108.307 140.374 108.322 140.456 108.353 140.621C108.395 140.783 108.425 140.919 108.442 141.03C108.7 142.113 108.898 143.006 109.034 143.708C109.178 144.396 109.265 144.932 109.296 145.316C109.326 145.701 109.302 145.985 109.223 146.168C109.142 146.387 109.031 146.557 108.889 146.677C108.759 146.794 108.595 146.897 108.4 146.985C108.247 147.062 108.038 147.143 107.773 147.228C107.515 147.3 107.24 147.37 106.948 147.439C106.875 147.205 106.765 146.958 106.617 146.699C106.467 146.429 106.3 146.209 106.118 146.04C106.36 145.996 106.568 145.956 106.743 145.919C106.925 145.868 107.07 145.828 107.178 145.799C107.274 145.772 107.346 145.74 107.395 145.704C107.453 145.665 107.505 145.598 107.55 145.505C107.592 145.401 107.591 145.199 107.548 144.899C107.513 144.585 107.427 144.124 107.292 143.514C107.168 142.901 106.986 142.091 106.748 141.083L106.681 140.824ZM103.023 147.676L104.847 148.055C104.534 148.535 104.225 149.007 103.92 149.473C103.613 149.928 103.323 150.32 103.052 150.649L101.664 150.288C101.832 150.045 102.002 149.773 102.177 149.47C102.349 149.157 102.51 148.846 102.66 148.539C102.808 148.221 102.929 147.933 103.023 147.676ZM106.191 147.649L108.034 147.97C107.634 148.555 107.196 149.15 106.72 149.755C106.252 150.347 105.775 150.924 105.288 151.486C104.809 152.034 104.35 152.525 103.91 152.959L102.409 152.56C102.854 152.102 103.313 151.588 103.786 151.018C104.26 150.448 104.702 149.869 105.113 149.281C105.535 148.691 105.894 148.147 106.191 147.649ZM100.334 150.881L101.143 149.409C101.569 149.453 102.013 149.527 102.477 149.63C102.941 149.732 103.386 149.852 103.813 149.988C104.236 150.113 104.603 150.243 104.914 150.376L104.111 152.002C103.805 151.844 103.438 151.692 103.009 151.545C102.579 151.398 102.131 151.268 101.665 151.154C101.206 151.027 100.763 150.936 100.334 150.881ZM102.654 154.104L104.564 154.216C104.296 154.776 103.943 155.347 103.508 155.93C103.072 156.512 102.644 157.012 102.223 157.429C102.077 157.354 101.893 157.266 101.672 157.166C101.461 157.062 101.246 156.966 101.027 156.876C100.808 156.787 100.619 156.723 100.46 156.686C100.903 156.31 101.324 155.893 101.723 155.436C102.13 154.965 102.441 154.521 102.654 154.104ZM104.245 142.278L105.932 141.863C106.225 143.168 106.337 144.333 106.269 145.357C106.209 146.367 105.915 147.274 105.388 148.079C105.266 148.009 105.103 147.933 104.897 147.851C104.689 147.758 104.477 147.672 104.261 147.594C104.056 147.512 103.879 147.451 103.731 147.411C104.262 146.756 104.544 146.002 104.576 145.149C104.608 144.297 104.498 143.34 104.245 142.278ZM112.134 140.493C112.373 140.439 112.624 140.386 112.887 140.337C113.15 140.287 113.432 140.221 113.732 140.137C113.958 140.075 114.269 139.989 114.666 139.879C115.063 139.769 115.514 139.644 116.019 139.505C116.523 139.365 117.044 139.221 117.58 139.073C118.117 138.924 118.637 138.78 119.142 138.64C119.646 138.501 120.102 138.375 120.51 138.262C120.918 138.149 121.24 138.06 121.476 137.994C121.755 137.917 122.017 137.839 122.261 137.76C122.502 137.67 122.717 137.588 122.904 137.513L123.429 139.534C123.222 139.579 122.999 139.63 122.76 139.684C122.532 139.736 122.268 139.803 121.967 139.886C121.731 139.952 121.398 140.044 120.969 140.162C120.54 140.281 120.051 140.416 119.504 140.568C118.967 140.716 118.414 140.869 117.846 141.027C117.287 141.181 116.756 141.328 116.252 141.468C115.747 141.607 115.313 141.728 114.948 141.829C114.594 141.927 114.352 141.994 114.223 142.029C113.923 142.112 113.645 142.195 113.39 142.277C113.133 142.348 112.889 142.427 112.658 142.514L112.134 140.493ZM119.149 144.652C119.199 144.846 119.266 145.105 119.35 145.428C119.434 145.752 119.523 146.097 119.618 146.463C119.711 146.819 119.796 147.148 119.874 147.449C119.953 147.751 120.01 147.972 120.046 148.112C120.161 148.554 120.387 148.827 120.724 148.93C121.062 149.033 121.552 148.995 122.196 148.817C122.926 148.615 123.634 148.396 124.321 148.16C125.007 147.924 125.664 147.684 126.291 147.441L126.713 149.664C126.375 149.781 125.962 149.918 125.474 150.076C124.996 150.232 124.485 150.39 123.941 150.553C123.396 150.715 122.872 150.866 122.367 151.005C121.39 151.276 120.606 151.377 120.013 151.31C119.431 151.24 118.988 151.039 118.683 150.708C118.376 150.365 118.151 149.919 118.008 149.369C117.941 149.111 117.859 148.793 117.761 148.415C117.663 148.038 117.561 147.645 117.455 147.235C117.348 146.825 117.249 146.443 117.157 146.087C117.065 145.731 116.988 145.435 116.926 145.198C116.893 145.068 116.839 144.864 116.767 144.583C116.694 144.303 116.612 143.985 116.519 143.629C116.424 143.263 116.332 142.907 116.242 142.562C116.153 142.217 116.073 141.91 116.003 141.641C115.931 141.36 115.882 141.172 115.856 141.075L118.062 140.464C118.087 140.561 118.139 140.761 118.217 141.063C118.296 141.364 118.386 141.715 118.49 142.114C118.591 142.502 118.69 142.884 118.788 143.262C118.886 143.639 118.968 143.957 119.035 144.216C119.102 144.474 119.14 144.62 119.149 144.652ZM112.275 145.428C112.514 145.373 112.808 145.309 113.157 145.236C113.517 145.159 113.82 145.087 114.067 145.019C114.282 144.959 114.593 144.873 115.001 144.76C115.419 144.644 115.897 144.512 116.434 144.364C116.981 144.212 117.555 144.053 118.156 143.887C118.768 143.718 119.369 143.551 119.959 143.388C120.55 143.225 121.102 143.072 121.618 142.929C122.144 142.783 122.589 142.66 122.954 142.559C123.33 142.455 123.598 142.381 123.759 142.336C123.877 142.304 124.031 142.255 124.222 142.191C124.412 142.127 124.604 142.068 124.797 142.015C124.998 141.947 125.167 141.889 125.304 141.84L125.857 143.905C125.636 143.943 125.371 144.005 125.059 144.091C124.745 144.166 124.497 144.229 124.315 144.28C124.154 144.324 123.88 144.4 123.494 144.507C123.118 144.611 122.667 144.735 122.141 144.881C121.615 145.027 121.052 145.182 120.451 145.349C119.85 145.515 119.249 145.681 118.648 145.848C118.047 146.014 117.473 146.173 116.925 146.325C116.388 146.473 115.916 146.604 115.508 146.717C115.101 146.829 114.789 146.916 114.575 146.975C114.349 147.037 114.062 147.128 113.714 147.248C113.362 147.357 113.066 147.456 112.825 147.546L112.275 145.428ZM128.102 140.788C128.298 140.745 128.549 140.693 128.855 140.631C129.159 140.559 129.473 140.484 129.798 140.405C130.133 140.324 130.44 140.245 130.719 140.168C130.988 140.093 131.32 140.001 131.718 139.891C132.115 139.782 132.544 139.663 133.006 139.535C133.478 139.404 133.961 139.271 134.454 139.134C134.959 138.994 135.458 138.856 135.952 138.72C136.445 138.583 136.912 138.454 137.352 138.332C137.792 138.21 138.184 138.102 138.528 138.007C138.882 137.909 139.161 137.832 139.365 137.775C139.74 137.671 140.092 137.562 140.419 137.449C140.743 137.324 141.011 137.227 141.223 137.157L141.882 139.695C141.697 139.735 141.419 139.795 141.048 139.874C140.678 139.954 140.321 140.041 139.977 140.136C139.773 140.192 139.494 140.27 139.14 140.368C138.786 140.466 138.389 140.575 137.949 140.697C137.509 140.819 137.042 140.948 136.548 141.085C136.065 141.218 135.571 141.355 135.067 141.495C134.562 141.634 134.074 141.769 133.602 141.9C133.14 142.028 132.711 142.147 132.314 142.257C131.928 142.363 131.6 142.454 131.332 142.528C130.87 142.656 130.401 142.797 129.924 142.953C129.443 143.097 129.056 143.222 128.761 143.326L128.102 140.788ZM152.521 129.161C152.728 129.335 152.96 129.542 153.218 129.782C153.476 130.023 153.723 130.266 153.959 130.513C154.207 130.756 154.427 130.984 154.62 131.197L153.383 132.215C153.143 131.912 152.913 131.646 152.693 131.418C152.484 131.187 152.271 130.968 152.057 130.762C151.84 130.545 151.593 130.325 151.316 130.101L152.521 129.161ZM154.4 127.688C154.617 127.859 154.853 128.059 155.108 128.289C155.374 128.516 155.63 128.751 155.878 128.994C156.133 129.224 156.351 129.447 156.534 129.662L155.354 130.699C155.092 130.402 154.848 130.146 154.62 129.932C154.399 129.704 154.178 129.494 153.955 129.301C153.741 129.095 153.498 128.89 153.227 128.688L154.4 127.688ZM148.879 141.658C148.823 141.443 148.735 141.103 148.615 140.64C148.492 140.165 148.35 139.621 148.191 139.007C148.029 138.381 147.861 137.735 147.688 137.066C147.511 136.387 147.342 135.735 147.18 135.11C147.015 134.474 146.87 133.913 146.744 133.428C146.618 132.943 146.526 132.587 146.467 132.361C146.391 132.07 146.29 131.746 146.163 131.388C146.046 131.028 145.925 130.715 145.798 130.449L148.31 129.754C148.35 130.043 148.399 130.365 148.457 130.719C148.514 131.073 148.586 131.417 148.673 131.751C148.748 132.042 148.853 132.446 148.987 132.963C149.121 133.481 149.271 134.057 149.436 134.693C149.598 135.319 149.765 135.96 149.935 136.618C150.106 137.275 150.269 137.906 150.426 138.509C150.58 139.102 150.715 139.625 150.833 140.078C150.948 140.52 151.031 140.843 151.085 141.048C151.121 141.188 151.181 141.397 151.264 141.674C151.356 141.938 151.45 142.212 151.547 142.497C151.655 142.779 151.749 143.03 151.829 143.251L149.301 143.95C149.274 143.623 149.215 143.241 149.124 142.804C149.042 142.353 148.96 141.971 148.879 141.658ZM148.785 134.111C149.358 134.103 150.001 134.121 150.714 134.166C151.436 134.198 152.168 134.249 152.911 134.321C153.652 134.382 154.355 134.453 155.02 134.535C155.683 134.605 156.232 134.684 156.669 134.771L156.35 137.268C155.825 137.148 155.257 137.045 154.648 136.96C154.039 136.874 153.421 136.797 152.794 136.728C152.174 136.645 151.571 136.581 150.984 136.535C150.397 136.49 149.865 136.458 149.389 136.44L148.785 134.111Z" fill="#278EFF"></path>
<rect x="149.054" y="24.9021" width="144.513" height="195.602" rx="10.7883" fill="#EBFFEA"></rect>
<rect x="149.054" y="24.9021" width="144.513" height="195.602" rx="10.7883" stroke="white" stroke-width="10.4403"></rect>
<path d="M233.594 80.6761H223.369C223.054 80.6761 222.751 80.5507 222.528 80.3275C222.305 80.1043 222.179 79.8015 222.179 79.4858V69.2616C222.18 69.0262 222.251 68.7964 222.383 68.6012C222.514 68.406 222.701 68.2542 222.918 68.1651C223.136 68.0759 223.376 68.0533 223.606 68.1002C223.837 68.1471 224.049 68.2613 224.214 68.4284L234.427 78.6408C234.594 78.8065 234.708 79.0181 234.755 79.2488C234.802 79.4795 234.779 79.7189 234.69 79.9368C234.601 80.1546 234.449 80.3411 234.254 80.4727C234.059 80.6043 233.829 80.6751 233.594 80.6761ZM204.325 102.101V68.7736C204.325 67.8266 204.702 66.9184 205.371 66.2487C206.041 65.5791 206.949 65.2029 207.896 65.2029H217.418C217.734 65.2029 218.037 65.3283 218.26 65.5515C218.483 65.7747 218.608 66.0774 218.608 66.3931V80.6761C218.608 81.6231 218.985 82.5313 219.654 83.201C220.324 83.8706 221.232 84.2468 222.179 84.2468H236.462C236.778 84.2468 237.081 84.3722 237.304 84.5954C237.527 84.8187 237.652 85.1214 237.652 85.4371V102.101C237.652 103.048 237.276 103.956 236.607 104.625C235.937 105.295 235.029 105.671 234.082 105.671H207.896C206.949 105.671 206.041 105.295 205.371 104.625C204.702 103.956 204.325 103.048 204.325 102.101Z" fill="#6B7280"></path>
<path d="M186.628 141.944H194.513V143.397H186.628V141.944ZM185.626 134.694H195.381V136.298H185.626V134.694ZM185.542 144.049H195.431V145.652H185.542V144.049ZM191.907 146.755L193.31 145.819C193.577 146.064 193.855 146.332 194.145 146.621C194.435 146.911 194.702 147.2 194.947 147.49C195.203 147.779 195.403 148.047 195.548 148.292L194.045 149.327C193.922 149.093 193.739 148.826 193.494 148.525C193.26 148.225 193.004 147.918 192.725 147.607C192.447 147.295 192.174 147.011 191.907 146.755ZM187.764 138.519V139.889H193.226V138.519H187.764ZM186.11 137.083H194.947V141.342H186.11V137.083ZM189.535 144.85H191.389V147.941C191.389 148.33 191.344 148.648 191.255 148.893C191.177 149.138 191.005 149.322 190.737 149.444C190.481 149.567 190.175 149.645 189.819 149.678C189.462 149.711 189.056 149.728 188.599 149.728C188.566 149.472 188.493 149.194 188.382 148.893C188.282 148.603 188.176 148.342 188.065 148.108C188.332 148.119 188.582 148.13 188.816 148.141C189.061 148.141 189.223 148.136 189.301 148.124C189.39 148.113 189.451 148.097 189.485 148.074C189.518 148.052 189.535 148.002 189.535 147.924V144.85ZM187.229 145.786L188.766 146.621C188.421 147.144 188.015 147.646 187.547 148.124C187.079 148.603 186.611 149.004 186.144 149.327C185.999 149.138 185.81 148.926 185.576 148.692C185.342 148.459 185.119 148.264 184.907 148.108C185.353 147.829 185.787 147.473 186.21 147.039C186.634 146.604 186.973 146.187 187.229 145.786ZM188.432 135.646H189.986V137.935H188.432V135.646ZM188.633 137.684H189.969V140.958H188.633V137.684ZM190.904 135.646H192.458V137.935H190.904V135.646ZM190.904 137.684H192.257V140.958H190.904V137.684ZM179.98 137.484H185.492V139.338H179.98V137.484ZM182.018 134.009H183.822V149.695H182.018V134.009ZM181.984 138.753L183.087 139.121C182.975 139.789 182.831 140.479 182.652 141.192C182.474 141.894 182.274 142.59 182.051 143.28C181.828 143.96 181.583 144.594 181.316 145.185C181.06 145.775 180.782 146.281 180.481 146.705C180.392 146.448 180.253 146.148 180.063 145.803C179.885 145.457 179.724 145.173 179.579 144.951C179.846 144.583 180.102 144.154 180.347 143.664C180.592 143.174 180.82 142.651 181.032 142.094C181.244 141.537 181.427 140.975 181.583 140.407C181.75 139.828 181.884 139.277 181.984 138.753ZM183.738 140.006C183.838 140.117 183.983 140.324 184.172 140.624C184.373 140.914 184.585 141.237 184.807 141.593C185.041 141.938 185.247 142.261 185.425 142.562C185.615 142.851 185.743 143.057 185.81 143.18L184.774 144.617C184.674 144.36 184.54 144.06 184.373 143.715C184.217 143.369 184.044 143.013 183.855 142.645C183.677 142.278 183.504 141.933 183.337 141.61C183.17 141.287 183.025 141.02 182.903 140.808L183.738 140.006ZM197.62 135.379L198.655 134.009C198.956 134.109 199.268 134.238 199.591 134.393C199.925 134.538 200.242 134.689 200.543 134.844C200.844 135 201.089 135.156 201.278 135.312L200.175 136.816C200.008 136.66 199.774 136.493 199.474 136.314C199.184 136.136 198.878 135.969 198.555 135.813C198.232 135.646 197.92 135.502 197.62 135.379ZM196.4 138.102L197.436 136.749C197.714 136.838 198.015 136.955 198.338 137.1C198.672 137.244 198.989 137.395 199.29 137.551C199.602 137.695 199.852 137.835 200.042 137.968L198.989 139.472C198.8 139.327 198.561 139.171 198.271 139.004C197.981 138.837 197.67 138.675 197.336 138.519C197.001 138.352 196.69 138.213 196.4 138.102ZM196.851 142.863C197.152 142.595 197.491 142.278 197.87 141.91C198.26 141.543 198.655 141.148 199.056 140.724C199.468 140.301 199.864 139.878 200.242 139.455L201.311 140.775C200.832 141.365 200.331 141.966 199.808 142.579C199.284 143.191 198.761 143.787 198.238 144.366L196.851 142.863ZM203.182 143.915H205.237V149.711H203.182V143.915ZM196.684 145.017H211.952V146.822H196.684V145.017ZM203.232 133.926L205.17 134.527C204.869 135.173 204.507 135.808 204.084 136.431C203.661 137.055 203.216 137.64 202.748 138.185C202.28 138.731 201.812 139.204 201.345 139.605C201.233 139.483 201.083 139.332 200.894 139.154C200.704 138.976 200.509 138.798 200.309 138.62C200.109 138.441 199.936 138.302 199.791 138.202C200.47 137.701 201.116 137.072 201.729 136.314C202.352 135.546 202.854 134.75 203.232 133.926ZM202.03 137.133L203.967 135.797V142.863H202.03V137.133ZM203.015 135.763H211.267V137.317H202.08L203.015 135.763ZM202.03 142.412H211.668V143.982H202.03V142.412ZM202.765 138.085H210.682V139.488H202.765V138.085ZM202.765 140.24H210.699V141.643H202.765V140.24ZM205.938 136.448H207.843V143.013H205.938V136.448ZM206.857 134.043L209.029 134.393C208.739 134.872 208.444 135.334 208.143 135.78C207.843 136.214 207.575 136.593 207.342 136.916L205.704 136.515C205.916 136.159 206.128 135.752 206.339 135.295C206.551 134.828 206.723 134.41 206.857 134.043ZM215.493 135.93C215.738 135.941 215.994 135.958 216.262 135.98C216.529 136.003 216.818 136.014 217.13 136.014C217.364 136.014 217.687 136.014 218.099 136.014C218.511 136.014 218.979 136.014 219.502 136.014C220.026 136.014 220.566 136.014 221.123 136.014C221.679 136.014 222.22 136.014 222.743 136.014C223.266 136.014 223.74 136.014 224.163 136.014C224.586 136.014 224.92 136.014 225.165 136.014C225.455 136.014 225.728 136.008 225.984 135.997C226.24 135.975 226.468 135.953 226.669 135.93V138.018C226.457 138.007 226.229 137.996 225.984 137.985C225.75 137.974 225.477 137.968 225.165 137.968C224.92 137.968 224.575 137.968 224.129 137.968C223.684 137.968 223.177 137.968 222.609 137.968C222.053 137.968 221.479 137.968 220.889 137.968C220.31 137.968 219.758 137.968 219.235 137.968C218.712 137.968 218.261 137.968 217.882 137.968C217.515 137.968 217.264 137.968 217.13 137.968C216.818 137.968 216.529 137.974 216.262 137.985C215.994 137.985 215.738 137.996 215.493 138.018V135.93ZM221.24 141.81C221.24 142.011 221.24 142.278 221.24 142.612C221.24 142.946 221.24 143.302 221.24 143.681C221.24 144.049 221.24 144.388 221.24 144.7C221.24 145.012 221.24 145.24 221.24 145.385C221.24 145.842 221.39 146.164 221.691 146.354C221.991 146.543 222.476 146.638 223.144 146.638C223.901 146.638 224.642 146.616 225.366 146.571C226.089 146.526 226.785 146.471 227.454 146.404L227.303 148.659C226.947 148.681 226.513 148.704 226 148.726C225.499 148.748 224.965 148.765 224.397 148.776C223.829 148.787 223.283 148.793 222.76 148.793C221.746 148.793 220.961 148.681 220.404 148.459C219.859 148.236 219.48 147.924 219.268 147.523C219.057 147.111 218.951 146.621 218.951 146.053C218.951 145.786 218.951 145.457 218.951 145.068C218.951 144.678 218.951 144.271 218.951 143.848C218.951 143.425 218.951 143.03 218.951 142.662C218.951 142.295 218.951 141.988 218.951 141.743C218.951 141.61 218.951 141.398 218.951 141.109C218.951 140.819 218.951 140.491 218.951 140.123C218.951 139.744 218.951 139.377 218.951 139.021C218.951 138.664 218.951 138.347 218.951 138.068C218.951 137.779 218.951 137.584 218.951 137.484H221.24C221.24 137.584 221.24 137.79 221.24 138.102C221.24 138.414 221.24 138.776 221.24 139.188C221.24 139.589 221.24 139.984 221.24 140.374C221.24 140.763 221.24 141.092 221.24 141.359C221.24 141.626 221.24 141.777 221.24 141.81ZM214.391 140.724C214.636 140.736 214.936 140.752 215.293 140.775C215.66 140.797 215.972 140.808 216.228 140.808C216.451 140.808 216.774 140.808 217.197 140.808C217.631 140.808 218.127 140.808 218.684 140.808C219.252 140.808 219.848 140.808 220.471 140.808C221.106 140.808 221.73 140.808 222.342 140.808C222.955 140.808 223.528 140.808 224.063 140.808C224.608 140.808 225.07 140.808 225.449 140.808C225.839 140.808 226.117 140.808 226.284 140.808C226.407 140.808 226.568 140.802 226.769 140.791C226.969 140.78 227.17 140.775 227.37 140.775C227.582 140.763 227.76 140.752 227.905 140.741L227.921 142.879C227.699 142.857 227.426 142.846 227.103 142.846C226.78 142.835 226.524 142.829 226.334 142.829C226.167 142.829 225.883 142.829 225.483 142.829C225.093 142.829 224.625 142.829 224.079 142.829C223.534 142.829 222.949 142.829 222.325 142.829C221.702 142.829 221.078 142.829 220.454 142.829C219.831 142.829 219.235 142.829 218.667 142.829C218.11 142.829 217.62 142.829 217.197 142.829C216.774 142.829 216.451 142.829 216.228 142.829C215.994 142.829 215.694 142.84 215.326 142.863C214.959 142.874 214.647 142.89 214.391 142.913V140.724ZM230.878 140.474C231.079 140.485 231.335 140.502 231.646 140.524C231.958 140.535 232.281 140.546 232.615 140.557C232.961 140.569 233.278 140.574 233.567 140.574C233.846 140.574 234.191 140.574 234.603 140.574C235.015 140.574 235.461 140.574 235.939 140.574C236.429 140.574 236.931 140.574 237.443 140.574C237.966 140.574 238.484 140.574 238.996 140.574C239.509 140.574 239.993 140.574 240.45 140.574C240.906 140.574 241.313 140.574 241.669 140.574C242.037 140.574 242.326 140.574 242.538 140.574C242.928 140.574 243.295 140.563 243.64 140.541C243.985 140.507 244.269 140.485 244.492 140.474V143.096C244.303 143.085 244.019 143.069 243.64 143.046C243.262 143.024 242.894 143.013 242.538 143.013C242.326 143.013 242.037 143.013 241.669 143.013C241.302 143.013 240.89 143.013 240.433 143.013C239.976 143.013 239.492 143.013 238.98 143.013C238.479 143.013 237.966 143.013 237.443 143.013C236.919 143.013 236.413 143.013 235.923 143.013C235.444 143.013 234.998 143.013 234.586 143.013C234.186 143.013 233.846 143.013 233.567 143.013C233.089 143.013 232.599 143.024 232.097 143.046C231.596 143.057 231.19 143.074 230.878 143.096V140.474ZM257.438 135.78C257.594 136.003 257.767 136.264 257.956 136.565C258.145 136.866 258.323 137.166 258.49 137.467C258.669 137.768 258.825 138.046 258.958 138.302L257.505 138.954C257.349 138.597 257.193 138.28 257.037 138.002C256.892 137.723 256.742 137.456 256.586 137.2C256.43 136.933 256.246 136.654 256.035 136.365L257.438 135.78ZM259.626 134.861C259.793 135.084 259.972 135.34 260.161 135.63C260.361 135.919 260.551 136.214 260.729 136.515C260.918 136.804 261.074 137.077 261.197 137.333L259.793 138.018C259.615 137.662 259.443 137.35 259.276 137.083C259.12 136.804 258.958 136.543 258.791 136.298C258.635 136.042 258.451 135.78 258.24 135.513L259.626 134.861ZM250.773 146.855C250.773 146.632 250.773 146.281 250.773 145.803C250.773 145.313 250.773 144.75 250.773 144.115C250.773 143.47 250.773 142.801 250.773 142.111C250.773 141.409 250.773 140.736 250.773 140.09C250.773 139.433 250.773 138.854 250.773 138.352C250.773 137.851 250.773 137.484 250.773 137.25C250.773 136.949 250.756 136.61 250.723 136.231C250.701 135.852 250.662 135.518 250.606 135.229H253.212C253.178 135.518 253.145 135.841 253.112 136.198C253.078 136.554 253.062 136.905 253.062 137.25C253.062 137.551 253.062 137.968 253.062 138.503C253.062 139.037 253.062 139.633 253.062 140.29C253.062 140.936 253.062 141.599 253.062 142.278C253.062 142.957 253.062 143.609 253.062 144.232C253.062 144.845 253.062 145.385 253.062 145.853C253.062 146.309 253.062 146.643 253.062 146.855C253.062 147 253.067 147.217 253.078 147.506C253.1 147.785 253.123 148.074 253.145 148.375C253.178 148.676 253.206 148.943 253.229 149.177H250.606C250.662 148.854 250.701 148.47 250.723 148.024C250.756 147.568 250.773 147.178 250.773 146.855ZM252.577 139.555C253.134 139.7 253.752 139.889 254.431 140.123C255.122 140.346 255.818 140.591 256.519 140.858C257.221 141.114 257.884 141.37 258.507 141.626C259.131 141.871 259.643 142.094 260.044 142.295L259.109 144.617C258.63 144.36 258.106 144.11 257.538 143.865C256.97 143.62 256.391 143.38 255.801 143.147C255.222 142.902 254.654 142.679 254.097 142.478C253.54 142.278 253.034 142.105 252.577 141.961V139.555Z" fill="#6B7280"></path>
<rect x="-3.72012" y="-6.44511" width="144.623" height="205.712" rx="10.7883" transform="matrix(0.963777 0.26671 -0.251129 0.967954 296.367 22.8579)" fill="#E3DBFF"></rect>
<rect x="-3.72012" y="-6.44511" width="144.623" height="205.712" rx="10.7883" transform="matrix(0.963777 0.26671 -0.251129 0.967954 296.367 22.8579)" stroke="white" stroke-width="10.4403"></rect>
<path d="M368.979 77.4026L342.044 69.9488C341.713 69.8572 341.361 69.9014 341.067 70.0716C340.772 70.2417 340.558 70.5239 340.472 70.8561L339.172 75.8658L343.162 76.9701C343.493 77.0616 343.776 77.2813 343.949 77.5809C344.122 77.8805 344.171 78.2354 344.084 78.5676C343.998 78.8998 343.784 79.182 343.489 79.3521C343.195 79.5223 342.843 79.5665 342.512 79.4749L338.522 78.3707L336.053 87.8891L340.043 88.9934C340.374 89.0849 340.657 89.3046 340.83 89.6042C341.003 89.9038 341.051 90.2587 340.965 90.5909C340.879 90.9231 340.665 91.2053 340.37 91.3754C340.075 91.5456 339.724 91.5898 339.393 91.4982L335.403 90.394L332.933 99.9124L336.924 101.017C337.254 101.108 337.537 101.328 337.71 101.628C337.883 101.927 337.932 102.282 337.846 102.614C337.76 102.946 337.545 103.229 337.251 103.399C336.956 103.569 336.604 103.613 336.274 103.522L332.283 102.417L330.984 107.427C330.897 107.759 330.946 108.114 331.119 108.414C331.292 108.713 331.575 108.933 331.906 109.024L358.841 116.478C359.172 116.57 359.523 116.526 359.818 116.356C360.113 116.185 360.327 115.903 360.413 115.571L369.901 79.0002C369.987 78.668 369.938 78.3131 369.765 78.0135C369.592 77.7139 369.309 77.4942 368.979 77.4026ZM351.366 100.986L343.385 98.7778C343.054 98.6863 342.772 98.4665 342.599 98.1669C342.426 97.8674 342.377 97.5124 342.463 97.1803C342.549 96.8481 342.763 96.5659 343.058 96.3957C343.353 96.2256 343.704 96.1814 344.035 96.2729L352.016 98.4815C352.347 98.573 352.63 98.7927 352.802 99.0923C352.975 99.3919 353.024 99.7468 352.938 100.079C352.852 100.411 352.638 100.693 352.343 100.864C352.048 101.034 351.697 101.078 351.366 100.986ZM358.174 95.3531L345.205 91.7642C344.874 91.6727 344.591 91.4529 344.418 91.1534C344.245 90.8538 344.197 90.4988 344.283 90.1667C344.369 89.8345 344.583 89.5523 344.878 89.3822C345.173 89.212 345.524 89.1678 345.855 89.2593L358.823 92.8482C359.154 92.9398 359.437 93.1595 359.61 93.4591C359.783 93.7587 359.832 94.1136 359.746 94.4458C359.659 94.7779 359.445 95.0601 359.151 95.2303C358.856 95.4004 358.504 95.4446 358.174 95.3531ZM359.863 88.8405L346.895 85.2516C346.564 85.1601 346.281 84.9403 346.108 84.6407C345.935 84.3411 345.886 83.9862 345.972 83.6541C346.059 83.3219 346.273 83.0397 346.567 82.8695C346.862 82.6994 347.214 82.6552 347.544 82.7467L360.513 86.3356C360.844 86.4271 361.127 86.6469 361.3 86.9465C361.473 87.2461 361.521 87.601 361.435 87.9331C361.349 88.2653 361.135 88.5475 360.84 88.7177C360.545 88.8878 360.194 88.932 359.863 88.8405Z" fill="#764DFB"></path>
<path d="M329.615 100.337C329.528 100.67 329.577 101.024 329.75 101.324C329.923 101.624 330.206 101.843 330.537 101.935L332.033 102.349L332.683 99.8442L331.186 99.4301C330.856 99.3385 330.504 99.3827 330.21 99.5529C329.915 99.723 329.701 100.005 329.615 100.337Z" fill="#764DFB"></path>
<path d="M332.735 88.3135C332.649 88.6457 332.698 89.0006 332.871 89.3002C333.044 89.5998 333.326 89.8195 333.657 89.9111L335.154 90.3252L335.803 87.8203L334.307 87.4062C333.976 87.3147 333.625 87.3589 333.33 87.529C333.035 87.6992 332.821 87.9814 332.735 88.3135Z" fill="#764DFB"></path>
<path d="M335.854 76.2908C335.767 76.6229 335.816 76.9778 335.989 77.2774C336.162 77.577 336.445 77.7968 336.776 77.8883L338.272 78.3024L338.922 75.7975L337.425 75.3834C337.095 75.2919 336.743 75.3361 336.449 75.5062C336.154 75.6764 335.94 75.9586 335.854 76.2908Z" fill="#764DFB"></path>
<path d="M302.851 133.659L311.11 135.944L310.653 137.706L302.394 135.421L302.851 133.659ZM302.317 137.046L309.9 139.145L309.451 140.875L301.868 138.776L302.317 137.046ZM300.591 140.173L309.655 142.681L309.194 144.46L300.13 141.952L300.591 140.173ZM305.762 135.14L307.678 135.67L304.691 147.183L302.775 146.652L305.762 135.14ZM309.609 132.219L311.35 133.29C310.958 133.736 310.568 134.177 310.179 134.612C309.792 135.036 309.44 135.395 309.123 135.689L307.76 134.757C307.966 134.537 308.176 134.283 308.389 133.995C308.615 133.7 308.837 133.397 309.055 133.088C309.274 132.779 309.458 132.489 309.609 132.219ZM303.959 131.383L305.667 131.249C305.816 131.741 305.933 132.264 306.019 132.82C306.105 133.375 306.142 133.853 306.13 134.254L304.304 134.442C304.327 134.044 304.303 133.558 304.234 132.984C304.175 132.413 304.083 131.879 303.959 131.383ZM296.48 133.94L301.47 135.321L301.089 136.793L296.098 135.412L296.48 133.94ZM297.698 129.512L302.592 130.866L302.214 132.321L297.32 130.967L297.698 129.512ZM295.905 136.155L300.896 137.537L300.518 138.992L295.527 137.611L295.905 136.155ZM296.298 131.447L302.625 133.198L302.227 134.734L295.9 132.983L296.298 131.447ZM296.211 138.632L300.285 139.759L299.005 144.691L294.932 143.563L295.331 142.027L297.745 142.696L298.228 140.836L295.813 140.168L296.211 138.632ZM295.278 138.373L296.92 138.828L295.477 144.39L293.835 143.936L295.278 138.373ZM322.334 137.906L324.025 138.374L321.059 149.806L319.368 149.338L322.334 137.906ZM319.489 136.304L327.426 138.501L323.902 152.083L322.099 151.584L325.157 139.797L320.746 138.576L317.65 150.509L315.927 150.032L319.489 136.304ZM319.02 142.102L324.896 143.728L324.439 145.49L318.563 143.864L319.02 142.102ZM317.577 147.664L323.437 149.285L322.98 151.048L317.12 149.426L317.577 147.664ZM313.526 141.864L315.232 142.336L313.357 149.563L311.65 149.091L313.526 141.864ZM315.529 133.874L317.068 134.993C316.744 135.354 316.402 135.722 316.04 136.095C315.692 136.461 315.354 136.812 315.025 137.149C314.696 137.485 314.384 137.78 314.088 138.033L312.931 137.106C313.208 136.837 313.504 136.514 313.82 136.139C314.136 135.765 314.442 135.382 314.739 134.99C315.047 134.602 315.31 134.23 315.529 133.874ZM316.97 136.37L318.366 137.571C317.81 138.075 317.214 138.598 316.579 139.139C315.947 139.668 315.315 140.175 314.684 140.659C314.063 141.146 313.483 141.563 312.944 141.911L311.989 140.936C312.382 140.663 312.798 140.345 313.237 139.981C313.69 139.61 314.137 139.219 314.577 138.81C315.03 138.392 315.459 137.98 315.864 137.572C316.283 137.156 316.651 136.755 316.97 136.37ZM312.044 137L313.305 135.928C313.523 136.242 313.739 136.585 313.953 136.956C314.178 137.33 314.376 137.697 314.548 138.057C314.733 138.408 314.857 138.726 314.922 139.009L313.566 140.246C313.501 139.962 313.386 139.63 313.22 139.249C313.065 138.871 312.883 138.486 312.675 138.093C312.466 137.7 312.256 137.336 312.044 137ZM315.597 140.132L317.157 139.905C317.29 140.323 317.405 140.765 317.503 141.231C317.601 141.697 317.678 142.152 317.736 142.595C317.796 143.028 317.823 143.411 317.817 143.744L316.135 144.042C316.141 143.708 316.121 143.321 316.074 142.881C316.041 142.433 315.982 141.972 315.898 141.498C315.828 141.016 315.727 140.561 315.597 140.132ZM311.16 140.273C311.912 140.435 312.818 140.622 313.879 140.835C314.95 141.05 316.032 141.269 317.125 141.491L316.767 143.003C315.752 142.838 314.736 142.672 313.721 142.507C312.716 142.344 311.806 142.196 310.989 142.063L311.16 140.273ZM314.773 144.306L316.331 144.217C316.428 144.775 316.498 145.372 316.54 146.008C316.585 146.633 316.6 147.174 316.584 147.632L314.916 147.742C314.949 147.439 314.958 147.095 314.943 146.71C314.931 146.313 314.909 145.909 314.878 145.496C314.85 145.072 314.815 144.675 314.773 144.306ZM311.259 142.883L312.798 143.603C312.511 144.356 312.184 145.085 311.816 145.792C311.459 146.502 311.096 147.083 310.725 147.535C310.638 147.43 310.514 147.309 310.354 147.173C310.204 147.039 310.044 146.902 309.873 146.762C309.716 146.615 309.573 146.5 309.445 146.419C309.804 146.01 310.136 145.483 310.441 144.84C310.757 144.199 311.03 143.547 311.259 142.883ZM330.981 140.161C331.214 140.237 331.457 140.321 331.709 140.414C331.961 140.507 332.237 140.595 332.538 140.678C332.763 140.74 333.074 140.827 333.471 140.937C333.869 141.046 334.319 141.171 334.824 141.311C335.328 141.45 335.849 141.594 336.385 141.743C336.922 141.891 337.443 142.035 337.947 142.175C338.452 142.315 338.908 142.441 339.316 142.554C339.723 142.667 340.045 142.756 340.281 142.821C340.561 142.898 340.825 142.966 341.075 143.023C341.327 143.07 341.553 143.109 341.751 143.141L341.227 145.162C341.026 145.095 340.809 145.023 340.575 144.947C340.353 144.874 340.091 144.796 339.791 144.713C339.555 144.648 339.222 144.555 338.793 144.437C338.363 144.318 337.875 144.183 337.327 144.031C336.791 143.883 336.238 143.73 335.669 143.572C335.111 143.418 334.58 143.271 334.075 143.131C333.571 142.992 333.136 142.871 332.771 142.77C332.417 142.672 332.176 142.606 332.047 142.57C331.746 142.487 331.466 142.415 331.206 142.354C330.948 142.283 330.698 142.226 330.457 142.182L330.981 140.161ZM335.042 147.385C334.992 147.579 334.925 147.838 334.841 148.161C334.757 148.484 334.668 148.829 334.573 149.196C334.48 149.551 334.395 149.88 334.317 150.182C334.238 150.484 334.181 150.705 334.145 150.845C334.03 151.287 334.094 151.64 334.336 151.903C334.578 152.167 335.022 152.387 335.665 152.566C336.395 152.768 337.115 152.943 337.823 153.093C338.532 153.243 339.217 153.375 339.878 153.489L339.167 155.631C338.818 155.558 338.393 155.464 337.894 155.349C337.406 155.236 336.886 155.11 336.336 154.969C335.786 154.829 335.258 154.688 334.754 154.549C333.777 154.279 333.049 153.961 332.568 153.597C332.098 153.236 331.811 152.833 331.708 152.389C331.608 151.934 331.629 151.431 331.771 150.881C331.838 150.623 331.921 150.305 332.019 149.927C332.117 149.55 332.219 149.157 332.325 148.747C332.431 148.337 332.531 147.955 332.623 147.599C332.715 147.243 332.792 146.947 332.854 146.71C332.887 146.58 332.94 146.376 333.013 146.095C333.086 145.815 333.168 145.497 333.261 145.141C333.356 144.775 333.448 144.419 333.537 144.074C333.627 143.729 333.707 143.422 333.777 143.153C333.849 142.872 333.898 142.684 333.923 142.587L336.129 143.197C336.104 143.294 336.052 143.493 335.974 143.795C335.895 144.097 335.805 144.447 335.701 144.846C335.6 145.234 335.501 145.617 335.403 145.994C335.305 146.372 335.223 146.69 335.156 146.948C335.089 147.207 335.051 147.352 335.042 147.385ZM328.714 144.507C328.948 144.583 329.233 144.68 329.571 144.796C329.92 144.916 330.218 145.01 330.464 145.078C330.679 145.137 330.99 145.224 331.398 145.336C331.817 145.452 332.294 145.584 332.831 145.733C333.378 145.884 333.953 146.043 334.554 146.21C335.165 146.379 335.766 146.545 336.357 146.709C336.947 146.872 337.5 147.025 338.015 147.168C338.541 147.313 338.986 147.436 339.351 147.537C339.727 147.641 339.995 147.716 340.156 147.76C340.274 147.793 340.431 147.83 340.627 147.873C340.823 147.916 341.018 147.964 341.211 148.017C341.418 148.063 341.592 148.1 341.735 148.128L341.214 150.202C341.005 150.121 340.745 150.037 340.433 149.951C340.125 149.854 339.879 149.78 339.697 149.73C339.536 149.685 339.262 149.61 338.876 149.503C338.5 149.399 338.049 149.274 337.523 149.128C336.998 148.983 336.434 148.827 335.833 148.661C335.232 148.494 334.631 148.328 334.03 148.162C333.429 147.995 332.855 147.836 332.307 147.685C331.771 147.536 331.298 147.406 330.891 147.293C330.483 147.18 330.171 147.094 329.957 147.035C329.731 146.972 329.439 146.903 329.079 146.826C328.722 146.739 328.417 146.672 328.165 146.625L328.714 144.507ZM344.667 148.662C344.858 148.726 345.1 148.811 345.395 148.915C345.693 149.009 346.002 149.106 346.321 149.206C346.651 149.309 346.955 149.399 347.234 149.476C347.503 149.55 347.835 149.643 348.232 149.752C348.63 149.862 349.059 149.981 349.52 150.109C349.993 150.24 350.476 150.373 350.969 150.51C351.474 150.649 351.973 150.788 352.467 150.924C352.96 151.061 353.427 151.19 353.867 151.312C354.307 151.434 354.699 151.542 355.042 151.637C355.397 151.735 355.676 151.812 355.88 151.869C356.255 151.973 356.612 152.06 356.951 152.13C357.292 152.19 357.571 152.244 357.788 152.293L357.13 154.831C356.95 154.77 356.681 154.678 356.321 154.556C355.962 154.433 355.611 154.324 355.267 154.229C355.063 154.173 354.784 154.096 354.43 153.998C354.076 153.9 353.679 153.79 353.239 153.668C352.799 153.546 352.332 153.417 351.838 153.28C351.355 153.147 350.861 153.01 350.357 152.871C349.852 152.731 349.364 152.596 348.892 152.465C348.43 152.337 348.001 152.219 347.604 152.109C347.217 152.002 346.89 151.911 346.622 151.837C346.16 151.709 345.685 151.589 345.197 151.477C344.711 151.354 344.315 151.262 344.009 151.2L344.667 148.662ZM371.444 151.202C371.538 151.459 371.639 151.759 371.746 152.1C371.853 152.442 371.949 152.78 372.035 153.116C372.131 153.455 372.211 153.766 372.276 154.049L370.711 154.292C370.651 153.906 370.58 153.557 370.5 153.246C370.43 152.938 370.352 152.639 370.266 152.349C370.183 152.049 370.076 151.731 369.945 151.394L371.444 151.202ZM373.784 150.897C373.889 151.157 373.996 151.452 374.106 151.783C374.227 152.117 374.335 152.453 374.431 152.791C374.541 153.122 374.623 153.428 374.676 153.708L373.152 153.997C373.07 153.605 372.982 153.257 372.888 152.954C372.807 152.642 372.718 152.346 372.618 152.064C372.532 151.775 372.421 151.473 372.284 151.157L373.784 150.897ZM362.239 160.145C362.295 159.929 362.383 159.59 362.504 159.126C362.627 158.652 362.768 158.107 362.927 157.493C363.089 156.868 363.257 156.221 363.431 155.553C363.607 154.874 363.776 154.221 363.938 153.596C364.103 152.96 364.249 152.4 364.374 151.915C364.5 151.43 364.593 151.074 364.651 150.847C364.727 150.556 364.796 150.223 364.859 149.848C364.933 149.475 364.979 149.142 364.998 148.846L367.509 149.541C367.405 149.813 367.291 150.117 367.17 150.453C367.048 150.789 366.944 151.124 366.857 151.458C366.781 151.749 366.677 152.153 366.542 152.671C366.408 153.188 366.258 153.765 366.093 154.401C365.931 155.026 365.765 155.667 365.594 156.325C365.424 156.982 365.26 157.613 365.103 158.217C364.95 158.809 364.814 159.332 364.697 159.785C364.582 160.227 364.498 160.55 364.445 160.755C364.408 160.895 364.359 161.107 364.297 161.39C364.249 161.666 364.198 161.952 364.144 162.249C364.1 162.549 364.06 162.815 364.023 163.047L361.495 162.348C361.63 162.05 361.764 161.688 361.897 161.263C362.044 160.83 362.158 160.457 362.239 160.145ZM365.811 153.56C366.311 153.849 366.86 154.197 367.456 154.604C368.065 155.004 368.674 155.427 369.283 155.873C369.895 156.308 370.47 156.732 371.006 157.147C371.546 157.55 371.984 157.902 372.32 158.203L370.835 160.201C370.438 159.826 369.996 159.443 369.51 159.055C369.025 158.666 368.527 158.28 368.016 157.896C367.52 157.505 367.028 157.138 366.542 156.795C366.056 156.452 365.611 156.15 365.207 155.888L365.811 153.56Z" fill="#764DFB"></path>
</g>
</g>
<defs>
<filter id="filter0_d_82_760" x="-14.891" y="-3.5846" width="467.97" height="288.688" filterUnits="userSpaceOnUse" color-interpolation-filters="sRGB">
<feFlood flood-opacity="0" result="BackgroundImageFix"></feFlood>
<feColorMatrix in="SourceAlpha" type="matrix" values="0 0 0 0 0 0 0 0 0 0 0 0 0 0 0 0 0 0 127 0" result="hardAlpha"></feColorMatrix>
<feOffset dx="-6.28614" dy="6.28614"></feOffset>
<feGaussianBlur stdDeviation="11.3704"></feGaussianBlur>
<feComposite in2="hardAlpha" operator="out"></feComposite>
<feColorMatrix type="matrix" values="0 0 0 0 0 0 0 0 0 0 0 0 0 0 0 0 0 0 0.1 0"></feColorMatrix>
<feBlend mode="normal" in2="BackgroundImageFix" result="effect1_dropShadow_82_760"></feBlend>
<feBlend mode="normal" in="SourceGraphic" in2="effect1_dropShadow_82_760" result="shape"></feBlend>
</filter>
</defs>
</svg>