<svg width="611" height="528" viewBox="0 0 611 528" fill="none" xmlns="http://www.w3.org/2000/svg">
<mask id="mask0_81_565" style="mask-type:alpha" maskUnits="userSpaceOnUse" x="0" y="0" width="611" height="528">
<path d="M0 0H611V504C611 517.255 600.255 528 587 528H24C10.7452 528 0 517.255 0 504V0Z" fill="#D9D9D9"></path>
</mask>
<g mask="url(#mask0_81_565)">
<path d="M0 0H611V504C611 517.255 600.255 528 587 528H24C10.7452 528 0 517.255 0 504V0Z" fill="#F4F1E9"></path>
<rect x="68" y="104" width="452" height="447.853" rx="8.48311" fill="white"></rect>
<rect x="68.5069" y="104.507" width="450.986" height="446.839" rx="7.97623" stroke="#D9D9D9" stroke-opacity="0.8" stroke-width="1.01375"></rect>
<mask id="mask1_81_565" style="mask-type:alpha" maskUnits="userSpaceOnUse" x="205" y="235" width="179" height="155">
<rect x="205.778" y="235.583" width="177.957" height="153.451" fill="#F3F3F3"></rect>
</mask>
<g mask="url(#mask1_81_565)">
<path d="M346.396 292.178C345.751 292.179 345.229 292.701 345.229 293.345V342.356C345.229 343.001 345.751 343.523 346.396 343.523C347.04 343.523 347.562 343.001 347.562 342.356V293.345C347.562 292.701 347.04 292.178 346.396 292.178ZM341.143 293.345C340.498 293.346 339.976 293.868 339.976 294.512V341.773C339.976 342.417 340.498 342.94 341.143 342.94C341.787 342.94 342.309 342.418 342.31 341.773V294.512C342.31 293.868 341.787 293.345 341.143 293.345ZM351.646 299.18C351.001 299.18 350.479 299.702 350.479 300.346V334.771C350.479 335.416 351.001 335.938 351.646 335.938C352.29 335.938 352.812 335.416 352.812 334.771V300.346C352.812 299.702 352.29 299.181 351.646 299.18ZM335.893 299.18C335.248 299.18 334.726 299.702 334.726 300.346V334.771C334.726 335.416 335.248 335.938 335.893 335.938C336.537 335.938 337.059 335.416 337.059 334.771V300.346C337.058 299.702 336.537 299.181 335.893 299.18ZM330.641 303.264C329.996 303.264 329.474 303.787 329.474 304.431V330.687C329.474 331.332 329.996 331.854 330.641 331.854C331.285 331.854 331.808 331.332 331.808 330.687V304.431C331.808 303.787 331.285 303.264 330.641 303.264ZM356.897 306.181C356.253 306.181 355.731 306.704 355.73 307.348V329.52C355.731 330.165 356.253 330.687 356.897 330.687C357.542 330.687 358.064 330.165 358.064 329.52V307.348C358.064 306.704 357.542 306.182 356.897 306.181ZM325.39 304.431C324.745 304.432 324.223 304.954 324.223 305.598V329.52C324.223 330.165 324.745 330.687 325.39 330.687C326.034 330.687 326.557 330.165 326.557 329.52V305.598C326.557 304.954 326.034 304.431 325.39 304.431ZM304.386 305.598C303.741 305.598 303.219 306.121 303.219 306.765V328.353C303.219 328.998 303.741 329.52 304.386 329.52C305.03 329.52 305.553 328.998 305.553 328.353V306.765C305.553 306.121 305.03 305.599 304.386 305.598ZM309.636 308.515C308.991 308.515 308.469 309.038 308.469 309.682V325.436C308.469 326.081 308.991 326.603 309.636 326.603C310.28 326.603 310.803 326.081 310.803 325.436V309.682C310.803 309.038 310.28 308.515 309.636 308.515ZM299.134 310.265C298.489 310.265 297.967 310.788 297.967 311.432V324.269C297.967 324.914 298.489 325.436 299.134 325.436C299.778 325.436 300.301 324.913 300.301 324.269V311.432C300.301 310.788 299.778 310.265 299.134 310.265ZM377.901 311.432C377.257 311.432 376.735 311.955 376.734 312.599V322.518C376.734 323.163 377.257 323.685 377.901 323.685C378.546 323.685 379.068 323.163 379.068 322.518V312.599C379.068 311.955 378.546 311.432 377.901 311.432ZM372.65 311.432C372.006 311.432 371.484 311.955 371.483 312.599V322.518C371.483 323.163 372.006 323.685 372.65 323.685C373.295 323.685 373.817 323.163 373.817 322.518V312.599C373.817 311.955 373.295 311.432 372.65 311.432ZM367.399 311.432C366.755 311.432 366.233 311.955 366.232 312.599V322.518C366.232 323.163 366.755 323.685 367.399 323.685C368.044 323.685 368.566 323.163 368.566 322.518V312.599C368.566 311.955 368.044 311.432 367.399 311.432ZM362.147 311.432C361.503 311.432 360.981 311.955 360.98 312.599V322.518C360.98 323.163 361.503 323.685 362.147 323.685C362.792 323.685 363.314 323.163 363.314 322.518V312.599C363.314 311.955 362.792 311.432 362.147 311.432ZM320.137 311.432C319.492 311.432 318.97 311.955 318.97 312.599V322.518C318.97 323.163 319.492 323.685 320.137 323.685C320.781 323.685 321.304 323.163 321.304 322.518V312.599C321.303 311.955 320.781 311.432 320.137 311.432ZM314.888 311.432C314.243 311.432 313.721 311.955 313.721 312.599V322.518C313.721 323.163 314.243 323.685 314.888 323.685C315.532 323.685 316.055 323.163 316.055 322.518V312.599C316.054 311.955 315.532 311.432 314.888 311.432Z" fill="url(#paint0_linear_81_565)"></path>
<path d="M293.881 313.767C293.236 313.767 292.714 314.289 292.714 314.934V317.851C292.714 318.495 293.236 319.018 293.881 319.018C294.525 319.018 295.048 318.495 295.048 317.851V314.934C295.048 314.289 294.525 313.767 293.881 313.767ZM288.629 313.767C287.984 313.767 287.462 314.289 287.462 314.934V317.851C287.462 318.495 287.984 319.018 288.629 319.018C289.273 319.018 289.796 318.495 289.796 317.851V314.934C289.796 314.289 289.273 313.767 288.629 313.767ZM283.378 313.767C282.733 313.767 282.211 314.289 282.211 314.934V317.851C282.211 318.495 282.733 319.018 283.378 319.018C284.022 319.018 284.545 318.495 284.545 317.851V314.934C284.545 314.289 284.022 313.767 283.378 313.767ZM278.128 313.767C277.484 313.767 276.961 314.289 276.961 314.934V317.851C276.961 318.495 277.484 319.018 278.128 319.018C278.772 319.018 279.295 318.495 279.295 317.851V314.934C279.295 314.289 278.772 313.767 278.128 313.767ZM272.876 313.767C272.231 313.767 271.709 314.289 271.709 314.934V317.851C271.709 318.495 272.231 319.018 272.876 319.018C273.52 319.017 274.043 318.495 274.043 317.851V314.934C274.043 314.289 273.52 313.767 272.876 313.767ZM267.625 313.767C266.981 313.767 266.458 314.289 266.458 314.934V317.851C266.458 318.495 266.981 319.017 267.625 319.018C268.269 319.018 268.792 318.495 268.792 317.851V314.934C268.792 314.289 268.269 313.767 267.625 313.767ZM262.374 313.767C261.73 313.767 261.208 314.289 261.208 314.934V317.851C261.208 318.495 261.73 319.017 262.374 319.018C263.019 319.018 263.541 318.495 263.541 317.851V314.934C263.541 314.289 263.019 313.767 262.374 313.767ZM257.123 313.767C256.479 313.767 255.956 314.289 255.956 314.934V317.851C255.956 318.495 256.479 319.018 257.123 319.018C257.768 319.018 258.29 318.495 258.29 317.851V314.934C258.29 314.289 257.768 313.767 257.123 313.767ZM251.871 313.767C251.227 313.767 250.704 314.289 250.704 314.934V317.851C250.704 318.495 251.227 319.018 251.871 319.018C252.515 319.017 253.038 318.495 253.038 317.851V314.934C253.038 314.289 252.515 313.767 251.871 313.767ZM246.619 313.767C245.975 313.767 245.452 314.289 245.452 314.934V317.851C245.452 318.495 245.975 319.018 246.619 319.018C247.264 319.018 247.786 318.495 247.786 317.851V314.934C247.786 314.289 247.264 313.767 246.619 313.767ZM241.369 313.767C240.725 313.767 240.202 314.289 240.202 314.934V317.851C240.202 318.495 240.725 319.017 241.369 319.018C242.014 319.018 242.536 318.495 242.536 317.851V314.934C242.536 314.289 242.014 313.767 241.369 313.767ZM236.117 313.767C235.473 313.767 234.95 314.289 234.95 314.934V317.851C234.95 318.495 235.473 319.018 236.117 319.018C236.762 319.018 237.284 318.495 237.284 317.851V314.934C237.284 314.289 236.762 313.767 236.117 313.767ZM230.867 313.767C230.223 313.767 229.7 314.289 229.7 314.934V317.851C229.7 318.495 230.223 319.018 230.867 319.018C231.511 319.017 232.033 318.495 232.033 317.851V314.934C232.033 314.289 231.511 313.767 230.867 313.767ZM225.616 313.767C224.972 313.767 224.449 314.289 224.449 314.934V317.851C224.449 318.495 224.972 319.017 225.616 319.018C226.261 319.018 226.783 318.495 226.783 317.851V314.934C226.783 314.289 226.261 313.767 225.616 313.767ZM220.364 313.767C219.72 313.767 219.197 314.289 219.197 314.934V317.851C219.197 318.495 219.72 319.017 220.364 319.018C221.009 319.018 221.531 318.495 221.531 317.851V314.934C221.531 314.289 221.009 313.767 220.364 313.767ZM215.112 313.767C214.468 313.767 213.945 314.289 213.945 314.934V317.851C213.945 318.495 214.468 319.017 215.112 319.018C215.757 319.018 216.279 318.495 216.279 317.851V314.934C216.279 314.289 215.757 313.767 215.112 313.767ZM209.861 313.767C209.217 313.767 208.695 314.289 208.695 314.934V317.851C208.695 318.495 209.217 319.017 209.861 319.018C210.506 319.018 211.028 318.495 211.028 317.851V314.934C211.028 314.289 210.506 313.767 209.861 313.767Z" fill="url(#paint1_linear_81_565)"></path>
</g>
<path d="M272.432 233.145L273.94 234.085C273.616 234.453 273.281 234.821 272.935 235.188C272.589 235.545 272.27 235.859 271.978 236.129L270.761 235.302C270.945 235.118 271.14 234.902 271.345 234.653C271.551 234.404 271.751 234.15 271.945 233.891C272.14 233.62 272.302 233.372 272.432 233.145ZM265.214 234.199L266.479 233.388C266.803 233.68 267.128 234.021 267.452 234.41C267.777 234.788 268.015 235.129 268.166 235.432L266.803 236.34C266.674 236.037 266.452 235.686 266.138 235.286C265.836 234.875 265.528 234.513 265.214 234.199ZM265.911 226.397H272.61V232.107H270.81V227.987H265.911V226.397ZM266.268 228.863H271.815V230.339H266.268V228.863ZM265.133 231.182H273.811V232.82H265.133V231.182ZM268.474 232.026H270.275V239.243C270.275 239.654 270.231 239.979 270.145 240.217C270.069 240.465 269.907 240.655 269.658 240.784C269.409 240.925 269.118 241.011 268.782 241.044C268.447 241.076 268.058 241.092 267.614 241.092C267.593 240.844 267.533 240.563 267.436 240.249C267.35 239.935 267.258 239.654 267.16 239.406C267.387 239.416 267.604 239.422 267.809 239.422C268.025 239.422 268.171 239.422 268.247 239.422C268.344 239.422 268.404 239.406 268.425 239.373C268.458 239.341 268.474 239.287 268.474 239.211V232.026ZM264.662 238.416C265.073 238.189 265.565 237.897 266.138 237.54C266.712 237.173 267.296 236.794 267.89 236.405L268.49 237.881C268.004 238.238 267.506 238.6 266.998 238.968C266.501 239.335 266.02 239.676 265.555 239.989L264.662 238.416ZM270.226 233.177C270.356 233.653 270.529 234.15 270.745 234.669C270.972 235.188 271.242 235.702 271.556 236.21C271.88 236.718 272.259 237.183 272.691 237.605C273.135 238.016 273.637 238.362 274.2 238.643C274.07 238.762 273.924 238.919 273.762 239.114C273.61 239.297 273.459 239.487 273.308 239.681C273.156 239.887 273.037 240.076 272.951 240.249C272.421 239.903 271.945 239.487 271.523 239C271.113 238.513 270.75 237.989 270.437 237.427C270.123 236.854 269.858 236.291 269.642 235.74C269.437 235.188 269.269 234.675 269.139 234.199L270.226 233.177ZM259.829 229.901H264.63V231.523H259.829V229.901ZM259.05 232.707H264.987V234.345H259.05V232.707ZM259.213 235.269L260.462 234.945C260.591 235.399 260.71 235.891 260.818 236.421C260.926 236.94 260.997 237.389 261.029 237.767L259.715 238.124C259.705 237.724 259.651 237.265 259.553 236.746C259.456 236.216 259.342 235.724 259.213 235.269ZM258.872 238.968C259.391 238.892 259.98 238.8 260.64 238.692C261.3 238.573 261.992 238.449 262.716 238.319C263.451 238.189 264.187 238.059 264.922 237.93L265.052 239.552C264.046 239.757 263.03 239.962 262.002 240.168C260.986 240.384 260.067 240.573 259.245 240.736L258.872 238.968ZM263.705 234.832L265.1 235.156C264.971 235.621 264.835 236.091 264.695 236.567C264.565 237.043 264.441 237.448 264.322 237.784L263.138 237.475C263.213 237.227 263.284 236.946 263.349 236.632C263.424 236.318 263.495 236.005 263.56 235.691C263.624 235.367 263.673 235.08 263.705 234.832ZM261.272 230.549H262.959V239.276L261.272 239.584V230.549ZM261.191 225.846H262.213V226.219H262.765V226.722C262.451 227.327 262.035 228.025 261.516 228.814C260.997 229.593 260.337 230.344 259.537 231.069C259.461 230.939 259.353 230.793 259.213 230.631C259.072 230.468 258.926 230.312 258.775 230.16C258.634 230.009 258.499 229.89 258.369 229.803C258.834 229.414 259.245 228.998 259.602 228.554C259.959 228.1 260.272 227.641 260.543 227.176C260.813 226.711 261.029 226.267 261.191 225.846ZM261.451 225.846H262.797C263.111 226.116 263.441 226.419 263.787 226.754C264.133 227.089 264.457 227.424 264.76 227.76C265.073 228.084 265.327 228.387 265.522 228.668L264.273 230.16C264.111 229.879 263.889 229.56 263.608 229.203C263.327 228.836 263.024 228.479 262.7 228.133C262.386 227.776 262.078 227.473 261.775 227.224H261.451V225.846ZM276.146 227.16H289.106V228.879H276.146V227.16ZM275.238 230.874H289.852V232.609H275.238V230.874ZM278.514 236.308H286.608V237.784H278.514V236.308ZM278.531 238.935H286.624V240.557H278.531V238.935ZM281.466 225.846H283.526V228.198H281.466V225.846ZM277.541 233.583H287.825V241.06H285.781V235.205H279.504V241.076H277.541V233.583ZM285.035 228.571L287.208 229.025C287.014 229.436 286.819 229.836 286.624 230.225C286.44 230.614 286.273 230.944 286.121 231.215L284.24 230.777C284.337 230.571 284.435 230.339 284.532 230.079C284.64 229.82 284.737 229.56 284.824 229.301C284.921 229.03 284.991 228.787 285.035 228.571ZM278.206 229.025L280.136 228.636C280.342 228.971 280.526 229.338 280.688 229.739C280.85 230.128 280.953 230.474 280.996 230.777L278.968 231.231C278.936 230.928 278.844 230.566 278.693 230.144C278.552 229.722 278.39 229.349 278.206 229.025ZM292.074 228.668H305.472V236.81H303.428V230.582H294.021V236.891H292.074V228.668ZM293.08 234.085H304.563V235.999H293.08V234.085ZM297.686 225.846H299.746V241.076H297.686V225.846ZM307.986 228.506C308.31 228.495 308.618 228.484 308.91 228.473C309.202 228.452 309.424 228.436 309.575 228.425C309.911 228.403 310.322 228.371 310.808 228.327C311.306 228.273 311.857 228.219 312.463 228.165C313.079 228.111 313.733 228.057 314.425 228.003C315.117 227.949 315.836 227.889 316.582 227.825C317.145 227.77 317.702 227.727 318.253 227.695C318.815 227.652 319.345 227.619 319.843 227.597C320.351 227.565 320.794 227.543 321.173 227.533L321.189 229.609C320.897 229.609 320.562 229.614 320.183 229.625C319.805 229.636 319.426 229.657 319.048 229.69C318.68 229.711 318.35 229.76 318.058 229.836C317.572 229.966 317.118 230.187 316.696 230.501C316.274 230.804 315.907 231.166 315.593 231.588C315.29 231.998 315.052 232.447 314.879 232.934C314.706 233.41 314.62 233.891 314.62 234.377C314.62 234.907 314.712 235.378 314.896 235.789C315.09 236.189 315.35 236.535 315.674 236.827C316.009 237.108 316.399 237.346 316.842 237.54C317.285 237.724 317.761 237.865 318.269 237.962C318.788 238.059 319.324 238.124 319.875 238.157L319.113 240.379C318.432 240.336 317.767 240.227 317.118 240.054C316.48 239.881 315.88 239.643 315.317 239.341C314.755 239.038 314.263 238.67 313.841 238.238C313.43 237.794 313.101 237.292 312.852 236.729C312.614 236.156 312.495 235.518 312.495 234.815C312.495 234.037 312.619 233.323 312.868 232.674C313.117 232.015 313.425 231.442 313.793 230.955C314.171 230.458 314.544 230.074 314.912 229.803C314.609 229.847 314.241 229.89 313.809 229.933C313.387 229.976 312.928 230.03 312.43 230.095C311.944 230.149 311.446 230.209 310.938 230.274C310.43 230.339 309.938 230.414 309.462 230.501C308.997 230.577 308.575 230.652 308.197 230.728L307.986 228.506ZM318.869 231.198C319.01 231.393 319.156 231.625 319.307 231.896C319.47 232.155 319.626 232.42 319.778 232.691C319.929 232.95 320.059 233.188 320.167 233.404L318.934 233.956C318.729 233.502 318.529 233.101 318.334 232.755C318.15 232.409 317.929 232.058 317.669 231.701L318.869 231.198ZM320.686 230.452C320.827 230.647 320.978 230.874 321.14 231.133C321.313 231.382 321.481 231.642 321.643 231.912C321.805 232.171 321.94 232.404 322.049 232.609L320.832 233.193C320.616 232.761 320.405 232.377 320.2 232.042C320.005 231.707 319.772 231.36 319.502 231.004L320.686 230.452ZM333.678 226.559C333.667 226.646 333.651 226.786 333.63 226.981C333.619 227.165 333.608 227.354 333.597 227.549C333.586 227.733 333.576 227.868 333.565 227.954C333.554 228.171 333.549 228.463 333.549 228.83C333.549 229.187 333.549 229.587 333.549 230.03C333.549 230.474 333.549 230.923 333.549 231.377C333.559 231.82 333.565 232.242 333.565 232.642C333.576 233.031 333.581 233.356 333.581 233.615L331.553 232.934C331.553 232.728 331.553 232.458 331.553 232.123C331.553 231.777 331.553 231.404 331.553 231.004C331.553 230.593 331.548 230.187 331.537 229.787C331.537 229.387 331.532 229.025 331.521 228.7C331.51 228.376 331.499 228.133 331.489 227.971C331.467 227.635 331.44 227.343 331.407 227.095C331.375 226.835 331.348 226.657 331.326 226.559H333.678ZM324.514 228.571C324.99 228.571 325.53 228.565 326.136 228.554C326.742 228.544 327.374 228.533 328.034 228.522C328.693 228.511 329.342 228.5 329.98 228.49C330.618 228.479 331.218 228.473 331.781 228.473C332.343 228.463 332.829 228.457 333.24 228.457C333.651 228.457 334.1 228.457 334.587 228.457C335.073 228.446 335.554 228.441 336.03 228.441C336.506 228.441 336.938 228.441 337.328 228.441C337.728 228.441 338.036 228.441 338.252 228.441L338.236 230.355C337.728 230.333 337.057 230.317 336.225 230.306C335.392 230.285 334.376 230.274 333.175 230.274C332.44 230.274 331.694 230.285 330.937 230.306C330.18 230.317 329.429 230.333 328.683 230.355C327.936 230.376 327.217 230.404 326.525 230.436C325.833 230.458 325.179 230.49 324.563 230.533L324.514 228.571ZM333.289 233.372C333.289 234.258 333.181 234.994 332.965 235.578C332.759 236.162 332.446 236.605 332.024 236.908C331.602 237.2 331.078 237.346 330.451 237.346C330.148 237.346 329.829 237.281 329.494 237.151C329.169 237.021 328.866 236.832 328.585 236.583C328.304 236.335 328.077 236.026 327.904 235.659C327.742 235.291 327.661 234.859 327.661 234.361C327.661 233.745 327.807 233.215 328.099 232.772C328.391 232.317 328.78 231.966 329.266 231.717C329.764 231.458 330.31 231.328 330.905 231.328C331.618 231.328 332.213 231.49 332.689 231.815C333.175 232.128 333.538 232.555 333.776 233.096C334.024 233.637 334.149 234.248 334.149 234.929C334.149 235.459 334.062 236.01 333.889 236.583C333.716 237.156 333.43 237.719 333.029 238.27C332.64 238.811 332.11 239.303 331.44 239.746C330.78 240.19 329.953 240.552 328.958 240.833L327.223 239.114C327.915 238.973 328.558 238.789 329.153 238.562C329.748 238.335 330.267 238.049 330.71 237.702C331.164 237.356 331.516 236.929 331.764 236.421C332.024 235.913 332.154 235.302 332.154 234.588C332.154 234.069 332.024 233.68 331.764 233.42C331.516 233.161 331.213 233.031 330.856 233.031C330.651 233.031 330.451 233.08 330.256 233.177C330.061 233.274 329.904 233.42 329.785 233.615C329.667 233.81 329.607 234.048 329.607 234.329C329.607 234.696 329.731 234.994 329.98 235.221C330.24 235.437 330.532 235.545 330.856 235.545C331.116 235.545 331.343 235.464 331.537 235.302C331.743 235.14 331.878 234.869 331.943 234.491C332.008 234.112 331.954 233.604 331.781 232.966L333.289 233.372Z" fill="#050505"></path>
<circle cx="225.811" cy="412.041" r="6.80236" fill="#EF4770"></circle>
<path d="M244.041 411.43C244.041 408.31 244.64 405.852 245.837 404.056C247.052 402.261 249.003 401.363 251.687 401.363C254.372 401.363 256.313 402.261 257.51 404.056C258.725 405.852 259.333 408.31 259.333 411.43C259.333 414.586 258.725 417.062 257.51 418.858C256.313 420.654 254.372 421.552 251.687 421.552C249.003 421.552 247.052 420.654 245.837 418.858C244.64 417.062 244.041 414.586 244.041 411.43ZM254.762 411.43C254.762 409.598 254.562 408.192 254.163 407.213C253.764 406.215 252.939 405.716 251.687 405.716C250.436 405.716 249.61 406.215 249.211 407.213C248.812 408.192 248.613 409.598 248.613 411.43C248.613 412.664 248.685 413.688 248.83 414.505C248.975 415.303 249.266 415.956 249.701 416.464C250.154 416.954 250.816 417.198 251.687 417.198C252.558 417.198 253.211 416.954 253.646 416.464C254.1 415.956 254.399 415.303 254.544 414.505C254.689 413.688 254.762 412.664 254.762 411.43ZM261.593 411.43C261.593 408.31 262.191 405.852 263.389 404.056C264.604 402.261 266.554 401.363 269.239 401.363C271.923 401.363 273.864 402.261 275.062 404.056C276.277 405.852 276.885 408.31 276.885 411.43C276.885 414.586 276.277 417.062 275.062 418.858C273.864 420.654 271.923 421.552 269.239 421.552C266.554 421.552 264.604 420.654 263.389 418.858C262.191 417.062 261.593 414.586 261.593 411.43ZM272.313 411.43C272.313 409.598 272.114 408.192 271.715 407.213C271.316 406.215 270.49 405.716 269.239 405.716C267.987 405.716 267.162 406.215 266.763 407.213C266.364 408.192 266.164 409.598 266.164 411.43C266.164 412.664 266.237 413.688 266.382 414.505C266.527 415.303 266.817 415.956 267.252 416.464C267.706 416.954 268.368 417.198 269.239 417.198C270.109 417.198 270.762 416.954 271.198 416.464C271.651 415.956 271.951 415.303 272.096 414.505C272.241 413.688 272.313 412.664 272.313 411.43ZM281.784 421.851C280.967 421.851 280.296 421.615 279.77 421.144C279.262 420.654 279.008 420.055 279.008 419.348C279.008 418.622 279.262 418.015 279.77 417.525C280.296 417.035 280.967 416.79 281.784 416.79C282.582 416.79 283.235 417.035 283.743 417.525C284.269 418.015 284.532 418.622 284.532 419.348C284.532 420.055 284.269 420.654 283.743 421.144C283.235 421.615 282.582 421.851 281.784 421.851ZM281.784 410.777C280.967 410.777 280.296 410.541 279.77 410.07C279.262 409.58 279.008 408.981 279.008 408.274C279.008 407.548 279.262 406.941 279.77 406.451C280.296 405.961 280.967 405.716 281.784 405.716C282.582 405.716 283.235 405.961 283.743 406.451C284.269 406.941 284.532 407.548 284.532 408.274C284.532 408.981 284.269 409.58 283.743 410.07C283.235 410.541 282.582 410.777 281.784 410.777ZM286.678 411.43C286.678 408.31 287.277 405.852 288.474 404.056C289.689 402.261 291.64 401.363 294.324 401.363C297.009 401.363 298.95 402.261 300.147 404.056C301.362 405.852 301.97 408.31 301.97 411.43C301.97 414.586 301.362 417.062 300.147 418.858C298.95 420.654 297.009 421.552 294.324 421.552C291.64 421.552 289.689 420.654 288.474 418.858C287.277 417.062 286.678 414.586 286.678 411.43ZM297.399 411.43C297.399 409.598 297.199 408.192 296.8 407.213C296.401 406.215 295.576 405.716 294.324 405.716C293.073 405.716 292.247 406.215 291.848 407.213C291.449 408.192 291.25 409.598 291.25 411.43C291.25 412.664 291.322 413.688 291.467 414.505C291.612 415.303 291.903 415.956 292.338 416.464C292.791 416.954 293.453 417.198 294.324 417.198C295.195 417.198 295.848 416.954 296.283 416.464C296.737 415.956 297.036 415.303 297.181 414.505C297.326 413.688 297.399 412.664 297.399 411.43ZM304.393 407.376C304.466 405.435 305.101 403.938 306.298 402.886C307.495 401.834 309.118 401.308 311.168 401.308C312.529 401.308 313.69 401.544 314.651 402.016C315.631 402.487 316.365 403.131 316.855 403.947C317.363 404.764 317.617 405.68 317.617 406.696C317.617 407.893 317.318 408.872 316.719 409.634C316.12 410.378 315.422 410.886 314.624 411.158V411.267C315.658 411.611 316.474 412.183 317.073 412.981C317.671 413.779 317.971 414.804 317.971 416.056C317.971 417.18 317.708 418.178 317.182 419.049C316.674 419.901 315.921 420.572 314.923 421.062C313.944 421.552 312.774 421.797 311.413 421.797C309.236 421.797 307.495 421.262 306.189 420.192C304.901 419.121 304.221 417.507 304.148 415.348H308.665C308.683 416.146 308.91 416.781 309.345 417.253C309.781 417.706 310.415 417.933 311.25 417.933C311.957 417.933 312.501 417.734 312.882 417.335C313.282 416.917 313.481 416.373 313.481 415.702C313.481 414.831 313.2 414.205 312.638 413.825C312.093 413.425 311.214 413.226 309.998 413.226H309.128V409.444H309.998C310.923 409.444 311.667 409.29 312.229 408.981C312.81 408.655 313.1 408.083 313.1 407.267C313.1 406.614 312.919 406.106 312.556 405.743C312.193 405.381 311.694 405.199 311.059 405.199C310.37 405.199 309.853 405.408 309.508 405.825C309.182 406.242 308.991 406.759 308.937 407.376H304.393Z" fill="#0C1924" fill-opacity="0.6"></path>
<path d="M332.186 403.953L328.513 419.3H326.649L330.323 403.953H332.186ZM338.428 409.395C338.337 409.014 338.178 408.729 337.951 408.538C337.734 408.348 337.416 408.253 336.999 408.253C336.373 408.253 335.911 408.507 335.611 409.014C335.321 409.513 335.172 410.33 335.162 411.463C335.38 411.101 335.698 410.819 336.115 410.62C336.532 410.411 336.985 410.307 337.475 410.307C338.065 410.307 338.586 410.434 339.04 410.688C339.493 410.942 339.847 411.314 340.101 411.803C340.355 412.284 340.482 412.865 340.482 413.545C340.482 414.189 340.35 414.765 340.087 415.273C339.833 415.771 339.457 416.161 338.958 416.443C338.459 416.724 337.865 416.864 337.176 416.864C336.233 416.864 335.489 416.656 334.945 416.239C334.41 415.821 334.033 415.241 333.816 414.497C333.607 413.744 333.503 412.819 333.503 411.722C333.503 410.062 333.788 408.81 334.36 407.967C334.931 407.114 335.834 406.688 337.067 406.688C338.019 406.688 338.759 406.947 339.285 407.464C339.811 407.98 340.115 408.624 340.196 409.395H338.428ZM337.04 411.871C336.559 411.871 336.156 412.012 335.829 412.293C335.503 412.574 335.339 412.983 335.339 413.518C335.339 414.053 335.489 414.474 335.788 414.783C336.097 415.091 336.527 415.245 337.081 415.245C337.57 415.245 337.956 415.096 338.237 414.796C338.527 414.497 338.672 414.094 338.672 413.586C338.672 413.06 338.532 412.642 338.251 412.334C337.979 412.026 337.575 411.871 337.04 411.871ZM341.789 411.749C341.789 410.18 342.07 408.951 342.632 408.062C343.204 407.173 344.147 406.729 345.462 406.729C346.777 406.729 347.716 407.173 348.278 408.062C348.85 408.951 349.135 410.18 349.135 411.749C349.135 413.327 348.85 414.565 348.278 415.463C347.716 416.361 346.777 416.81 345.462 416.81C344.147 416.81 343.204 416.361 342.632 415.463C342.07 414.565 341.789 413.327 341.789 411.749ZM347.258 411.749C347.258 411.078 347.213 410.516 347.122 410.062C347.04 409.599 346.868 409.223 346.605 408.933C346.351 408.643 345.97 408.497 345.462 408.497C344.954 408.497 344.569 408.643 344.306 408.933C344.052 409.223 343.879 409.599 343.789 410.062C343.707 410.516 343.666 411.078 343.666 411.749C343.666 412.438 343.707 413.019 343.789 413.49C343.87 413.953 344.043 414.329 344.306 414.62C344.569 414.901 344.954 415.041 345.462 415.041C345.97 415.041 346.355 414.901 346.619 414.62C346.882 414.329 347.054 413.953 347.136 413.49C347.217 413.019 347.258 412.438 347.258 411.749ZM351.447 416.932C351.102 416.932 350.816 416.828 350.59 416.619C350.372 416.402 350.263 416.134 350.263 415.817C350.263 415.499 350.372 415.236 350.59 415.028C350.816 414.81 351.102 414.701 351.447 414.701C351.782 414.701 352.059 414.81 352.277 415.028C352.494 415.236 352.603 415.499 352.603 415.817C352.603 416.134 352.494 416.402 352.277 416.619C352.059 416.828 351.782 416.932 351.447 416.932ZM351.447 411.3C351.102 411.3 350.816 411.196 350.59 410.987C350.372 410.769 350.263 410.502 350.263 410.184C350.263 409.867 350.372 409.604 350.59 409.395C350.816 409.178 351.102 409.069 351.447 409.069C351.782 409.069 352.059 409.178 352.277 409.395C352.494 409.604 352.603 409.867 352.603 410.184C352.603 410.502 352.494 410.769 352.277 410.987C352.059 411.196 351.782 411.3 351.447 411.3ZM353.761 411.749C353.761 410.18 354.042 408.951 354.605 408.062C355.176 407.173 356.119 406.729 357.434 406.729C358.75 406.729 359.688 407.173 360.251 408.062C360.822 408.951 361.108 410.18 361.108 411.749C361.108 413.327 360.822 414.565 360.251 415.463C359.688 416.361 358.75 416.81 357.434 416.81C356.119 416.81 355.176 416.361 354.605 415.463C354.042 414.565 353.761 413.327 353.761 411.749ZM359.23 411.749C359.23 411.078 359.185 410.516 359.094 410.062C359.013 409.599 358.84 409.223 358.577 408.933C358.323 408.643 357.942 408.497 357.434 408.497C356.927 408.497 356.541 408.643 356.278 408.933C356.024 409.223 355.852 409.599 355.761 410.062C355.679 410.516 355.639 411.078 355.639 411.749C355.639 412.438 355.679 413.019 355.761 413.49C355.843 413.953 356.015 414.329 356.278 414.62C356.541 414.901 356.927 415.041 357.434 415.041C357.942 415.041 358.328 414.901 358.591 414.62C358.854 414.329 359.026 413.953 359.108 413.49C359.189 413.019 359.23 412.438 359.23 411.749ZM362.358 411.749C362.358 410.18 362.639 408.951 363.202 408.062C363.773 407.173 364.716 406.729 366.031 406.729C367.346 406.729 368.285 407.173 368.847 408.062C369.419 408.951 369.705 410.18 369.705 411.749C369.705 413.327 369.419 414.565 368.847 415.463C368.285 416.361 367.346 416.81 366.031 416.81C364.716 416.81 363.773 416.361 363.202 415.463C362.639 414.565 362.358 413.327 362.358 411.749ZM367.827 411.749C367.827 411.078 367.782 410.516 367.691 410.062C367.609 409.599 367.437 409.223 367.174 408.933C366.92 408.643 366.539 408.497 366.031 408.497C365.523 408.497 365.138 408.643 364.875 408.933C364.621 409.223 364.449 409.599 364.358 410.062C364.276 410.516 364.235 411.078 364.235 411.749C364.235 412.438 364.276 413.019 364.358 413.49C364.44 413.953 364.612 414.329 364.875 414.62C365.138 414.901 365.523 415.041 366.031 415.041C366.539 415.041 366.925 414.901 367.188 414.62C367.451 414.329 367.623 413.953 367.705 413.49C367.786 413.019 367.827 412.438 367.827 411.749Z" fill="#A6A7AB"></path>
<rect x="116.028" y="450.773" width="110.176" height="44.2154" rx="7.24842" fill="#EB194C"></rect>
<rect x="146.689" y="466.079" width="13.6047" height="13.6047" fill="white"></rect>
<path d="M175.543 474.116L176.468 473.095C176.794 473.213 177.135 473.358 177.488 473.531C177.842 473.703 178.173 473.88 178.481 474.061C178.799 474.243 179.071 474.415 179.298 474.578L178.359 475.708C178.141 475.535 177.874 475.354 177.556 475.163C177.248 474.964 176.917 474.773 176.563 474.592C176.209 474.402 175.869 474.243 175.543 474.116ZM174.073 476.551L175.012 475.408C175.457 475.526 175.915 475.667 176.386 475.83C176.858 475.993 177.32 476.166 177.774 476.347C178.237 476.528 178.672 476.714 179.08 476.905C179.488 477.095 179.851 477.277 180.168 477.449L179.216 478.728C178.817 478.474 178.327 478.211 177.747 477.939C177.175 477.667 176.568 477.413 175.924 477.177C175.28 476.932 174.663 476.723 174.073 476.551ZM175.747 465.817L177.339 466.089C176.967 466.923 176.504 467.749 175.951 468.565C175.407 469.372 174.722 470.116 173.897 470.796C173.824 470.687 173.72 470.565 173.584 470.429C173.457 470.293 173.321 470.161 173.176 470.034C173.04 469.907 172.913 469.812 172.795 469.749C173.293 469.368 173.733 468.955 174.114 468.511C174.495 468.066 174.822 467.613 175.094 467.15C175.366 466.688 175.584 466.243 175.747 465.817ZM176.005 467.123H179.379V468.511H175.312L176.005 467.123ZM178.944 467.123H179.257L179.515 467.055L180.522 467.626C180.123 468.633 179.592 469.545 178.93 470.361C178.268 471.177 177.529 471.885 176.713 472.483C175.897 473.073 175.048 473.549 174.169 473.912C174.105 473.785 174.015 473.64 173.897 473.476C173.779 473.313 173.652 473.154 173.516 473C173.389 472.837 173.271 472.71 173.162 472.619C174.015 472.311 174.822 471.907 175.584 471.408C176.355 470.901 177.03 470.306 177.611 469.626C178.2 468.946 178.645 468.202 178.944 467.395V467.123ZM175.842 468.184C176.196 468.837 176.649 469.458 177.203 470.048C177.765 470.628 178.4 471.145 179.107 471.599C179.824 472.043 180.577 472.402 181.366 472.674C181.257 472.773 181.134 472.905 180.998 473.068C180.871 473.222 180.744 473.381 180.617 473.544C180.499 473.708 180.404 473.857 180.332 473.993C179.506 473.658 178.731 473.227 178.005 472.701C177.28 472.175 176.627 471.567 176.046 470.878C175.466 470.189 174.967 469.445 174.55 468.647L175.842 468.184ZM170.387 465.831L171.801 466.361C171.62 466.706 171.43 467.064 171.23 467.436C171.031 467.808 170.836 468.161 170.645 468.497C170.455 468.833 170.273 469.123 170.101 469.368L169.013 468.905C169.176 468.624 169.344 468.307 169.516 467.953C169.688 467.599 169.851 467.236 170.006 466.864C170.16 466.493 170.287 466.148 170.387 465.831ZM171.951 467.45L173.284 468.048C172.958 468.565 172.6 469.109 172.21 469.681C171.82 470.243 171.43 470.787 171.04 471.313C170.65 471.83 170.282 472.284 169.938 472.674L168.985 472.143C169.239 471.835 169.502 471.49 169.774 471.109C170.046 470.719 170.314 470.316 170.577 469.898C170.849 469.472 171.103 469.05 171.339 468.633C171.575 468.207 171.779 467.812 171.951 467.45ZM168.291 469.055L169.081 467.939C169.316 468.148 169.557 468.379 169.802 468.633C170.056 468.878 170.287 469.127 170.495 469.381C170.713 469.626 170.876 469.848 170.985 470.048L170.155 471.313C170.046 471.096 169.888 470.855 169.679 470.592C169.48 470.329 169.257 470.062 169.013 469.79C168.768 469.517 168.527 469.273 168.291 469.055ZM171.557 470.687L172.631 470.238C172.804 470.547 172.972 470.873 173.135 471.218C173.298 471.563 173.439 471.903 173.557 472.238C173.683 472.565 173.77 472.86 173.815 473.123L172.659 473.64C172.622 473.368 172.545 473.064 172.427 472.728C172.309 472.393 172.173 472.048 172.019 471.694C171.874 471.331 171.72 470.996 171.557 470.687ZM168.278 471.817C168.904 471.798 169.652 471.771 170.523 471.735C171.393 471.699 172.278 471.662 173.176 471.626L173.162 472.919C172.318 472.982 171.48 473.041 170.645 473.095C169.82 473.15 169.076 473.2 168.414 473.245L168.278 471.817ZM171.842 474.075L172.985 473.708C173.157 474.098 173.321 474.524 173.475 474.987C173.638 475.44 173.761 475.839 173.842 476.184L172.631 476.619C172.568 476.274 172.459 475.866 172.305 475.395C172.151 474.914 171.996 474.474 171.842 474.075ZM168.876 473.817L170.223 474.061C170.151 474.714 170.042 475.358 169.897 475.993C169.752 476.628 169.584 477.163 169.393 477.599C169.303 477.535 169.18 477.463 169.026 477.381C168.872 477.308 168.713 477.236 168.55 477.163C168.396 477.091 168.26 477.036 168.142 477C168.341 476.592 168.5 476.107 168.618 475.544C168.736 474.973 168.822 474.397 168.876 473.817ZM170.4 472.538H171.829V478.605H170.4V472.538ZM187.556 470.483H189.297V476.701C189.297 477.163 189.229 477.517 189.093 477.762C188.957 478.016 188.721 478.206 188.386 478.333C188.05 478.451 187.637 478.524 187.148 478.551C186.658 478.587 186.086 478.605 185.433 478.605C185.379 478.36 185.284 478.075 185.148 477.748C185.021 477.431 184.894 477.159 184.767 476.932C185.084 476.95 185.406 476.964 185.733 476.973C186.068 476.982 186.363 476.986 186.617 476.986C186.88 476.977 187.061 476.973 187.161 476.973C187.315 476.973 187.42 476.955 187.474 476.918C187.529 476.873 187.556 476.787 187.556 476.66V470.483ZM182.917 466.769H192.413V468.388H182.917V466.769ZM191.8 466.769H192.249L192.63 466.674L193.923 467.613C193.515 468.112 193.052 468.624 192.535 469.15C192.018 469.676 191.474 470.18 190.903 470.66C190.34 471.132 189.782 471.54 189.229 471.885C189.148 471.767 189.039 471.64 188.903 471.504C188.767 471.359 188.626 471.218 188.481 471.082C188.345 470.937 188.218 470.819 188.1 470.728C188.454 470.501 188.812 470.238 189.175 469.939C189.547 469.64 189.9 469.327 190.236 469C190.571 468.674 190.875 468.352 191.147 468.035C191.42 467.717 191.637 467.431 191.8 467.177V466.769Z" fill="white"></path>
<rect x="239.809" y="450.864" width="110.357" height="44.0341" rx="5.43631" fill="#F3F4F6"></rect>
<path fill-rule="evenodd" clip-rule="evenodd" d="M270.126 466.357H267.944C267.402 466.357 266.959 466.8 266.959 467.342V478.42C266.959 478.961 267.402 479.405 267.944 479.405H270.126C270.668 479.405 271.095 478.961 271.095 478.42V467.342C271.095 466.8 270.668 466.357 270.126 466.357ZM263.595 466.357H261.428C260.887 466.357 260.444 466.8 260.444 467.342V478.42C260.444 478.961 260.887 479.405 261.428 479.405H263.595C264.136 479.405 264.579 478.961 264.579 478.42V467.342C264.579 466.8 264.136 466.357 263.595 466.357Z" fill="#6B7280"></path>
<path d="M277.432 470.944H289.514V472.654H277.432V470.944ZM295.568 467.187H302.248V468.544H295.568V467.187ZM295.137 469.692H302.626V471.062H295.137V469.692ZM295.163 472.171H302.535V473.541H295.163V472.171ZM298.086 465.778H299.639V470.579H298.086V465.778ZM299.743 470.997H301.282V476.398C301.282 476.772 301.235 477.064 301.139 477.272C301.043 477.49 300.869 477.659 300.617 477.781C300.365 477.894 300.056 477.964 299.691 477.99C299.334 478.025 298.912 478.042 298.425 478.042C298.39 477.825 298.325 477.572 298.229 477.285C298.134 477.007 298.034 476.768 297.929 476.568C298.251 476.577 298.564 476.585 298.869 476.594C299.173 476.594 299.378 476.594 299.482 476.594C299.578 476.594 299.643 476.581 299.678 476.555C299.721 476.52 299.743 476.455 299.743 476.359V470.997ZM295.685 474.428L296.925 473.71C297.133 473.911 297.342 474.137 297.551 474.389C297.76 474.641 297.951 474.893 298.125 475.146C298.299 475.398 298.434 475.628 298.529 475.837L297.173 476.633C297.103 476.424 296.986 476.194 296.82 475.942C296.655 475.681 296.472 475.42 296.272 475.159C296.081 474.889 295.885 474.646 295.685 474.428ZM291.549 466.6H294.902V475.524H291.549V474.128H293.454V467.996H291.549V466.6ZM291.628 470.305H294.159V471.675H291.628V470.305ZM290.806 466.6H292.254V476.685H290.806V466.6ZM307.284 466.952H315.595V468.27H307.284V466.952ZM310.572 465.817H312.138V467.578H310.572V465.817ZM309.607 469.783V470.501H313.168V469.783H309.607ZM308.132 468.753H314.734V471.532H308.132V468.753ZM306.971 472.027H315.765V474.546H314.33V473.215H308.341V474.559H306.971V472.027ZM308.785 473.763H313.964V475.002H308.785V473.763ZM310.572 474.063H312.125V476.529C312.125 476.894 312.077 477.181 311.981 477.39C311.894 477.599 311.716 477.755 311.446 477.859C311.177 477.955 310.85 478.012 310.468 478.029C310.094 478.055 309.659 478.068 309.163 478.068C309.137 477.851 309.08 477.612 308.993 477.351C308.915 477.09 308.824 476.855 308.719 476.646C308.937 476.655 309.15 476.663 309.359 476.672C309.576 476.681 309.772 476.685 309.946 476.685C310.12 476.677 310.237 476.672 310.298 476.672C310.402 476.672 310.472 476.659 310.507 476.633C310.55 476.598 310.572 476.546 310.572 476.476V474.063ZM306.123 465.843L307.597 466.313C307.319 467.043 306.988 467.783 306.606 468.531C306.223 469.27 305.81 469.975 305.366 470.644C304.923 471.305 304.462 471.884 303.983 472.38C303.94 472.249 303.866 472.084 303.761 471.884C303.666 471.675 303.561 471.466 303.448 471.258C303.335 471.049 303.235 470.879 303.148 470.749C303.54 470.349 303.918 469.888 304.283 469.366C304.657 468.844 305.001 468.283 305.314 467.683C305.636 467.083 305.905 466.469 306.123 465.843ZM304.87 469.457L306.358 467.97V467.983V478.029H304.87V469.457ZM323.071 469.888H327.873V471.466H323.071V469.888ZM316.613 475.824H328.59V477.39H316.613V475.824ZM322.301 465.804H323.971V476.659H322.301V465.804ZM318.283 468.492H319.914V476.581H318.283V468.492Z" fill="#6B7280"></path>
<rect x="364.054" y="451.147" width="109.79" height="43.4673" rx="5.15288" stroke="#DEE2E6" stroke-width="0.566864"></rect>
<path d="M396.533 472.891C396.533 474.095 396.167 475.271 395.484 476.262C394.801 477.254 393.833 478.015 392.709 478.445C391.584 478.875 390.356 478.954 389.185 478.671C388.015 478.388 386.958 477.757 386.154 476.861C386.071 476.78 386.006 476.683 385.962 476.576C385.918 476.468 385.897 476.353 385.899 476.237C385.902 476.122 385.928 476.007 385.976 475.902C386.024 475.797 386.093 475.702 386.179 475.624C386.265 475.547 386.366 475.487 386.475 475.45C386.585 475.412 386.701 475.398 386.817 475.407C386.932 475.416 387.044 475.449 387.147 475.503C387.249 475.557 387.34 475.632 387.412 475.722C388.028 476.418 388.855 476.893 389.767 477.075C390.678 477.256 391.624 477.133 392.46 476.726C393.295 476.318 393.974 475.648 394.392 474.818C394.81 473.988 394.944 473.043 394.774 472.13C394.605 471.216 394.14 470.383 393.452 469.758C392.763 469.134 391.889 468.752 390.963 468.671C390.037 468.591 389.11 468.816 388.325 469.313C387.539 469.809 386.938 470.55 386.613 471.421C386.771 471.27 386.981 471.186 387.2 471.186C387.418 471.186 387.628 471.27 387.786 471.421C387.866 471.5 387.929 471.594 387.972 471.697C388.015 471.801 388.038 471.912 388.038 472.024C388.038 472.137 388.015 472.248 387.972 472.351C387.929 472.455 387.866 472.549 387.786 472.628L386.086 474.328C386.007 474.408 385.913 474.471 385.809 474.514C385.706 474.557 385.595 474.579 385.482 474.579C385.37 474.579 385.259 474.557 385.155 474.514C385.052 474.471 384.958 474.408 384.879 474.328L383.179 472.628C383.019 472.468 382.929 472.251 382.929 472.024C382.929 471.798 383.019 471.581 383.179 471.421C383.339 471.261 383.556 471.171 383.782 471.171C384.009 471.171 384.226 471.261 384.386 471.421L384.734 471.778C385.008 470.319 385.817 469.015 387.002 468.122C388.188 467.229 389.664 466.811 391.142 466.951C392.62 467.09 393.992 467.777 394.989 468.876C395.987 469.975 396.538 471.407 396.533 472.891Z" fill="#111827" fill-opacity="0.54"></path>
<path d="M412.852 466.756C412.844 466.939 412.831 467.139 412.813 467.357C412.804 467.565 412.8 467.8 412.8 468.061C412.8 468.287 412.8 468.561 412.8 468.883C412.8 469.205 412.8 469.527 412.8 469.849C412.8 470.162 412.8 470.427 412.8 470.644C412.8 471.34 412.765 471.949 412.696 472.471C412.635 472.993 412.539 473.45 412.409 473.841C412.278 474.232 412.117 474.58 411.926 474.885C411.743 475.18 411.53 475.463 411.287 475.733C411 476.046 410.669 476.329 410.295 476.581C409.921 476.824 409.543 477.029 409.16 477.194C408.786 477.368 408.438 477.507 408.116 477.612L406.746 476.176C407.399 476.029 407.986 475.824 408.508 475.563C409.038 475.294 409.499 474.95 409.891 474.532C410.117 474.28 410.299 474.028 410.439 473.776C410.578 473.523 410.682 473.245 410.752 472.941C410.83 472.628 410.882 472.275 410.908 471.884C410.943 471.492 410.96 471.045 410.96 470.54C410.96 470.314 410.96 470.044 410.96 469.731C410.96 469.418 410.96 469.109 410.96 468.805C410.96 468.5 410.96 468.252 410.96 468.061C410.96 467.8 410.952 467.565 410.934 467.357C410.926 467.139 410.908 466.939 410.882 466.756H412.852ZM406.798 466.861C406.79 467.017 406.781 467.174 406.772 467.33C406.764 467.478 406.759 467.657 406.759 467.865C406.759 467.961 406.759 468.118 406.759 468.335C406.759 468.553 406.759 468.809 406.759 469.105C406.759 469.392 406.759 469.696 406.759 470.018C406.759 470.331 406.759 470.636 406.759 470.931C406.759 471.227 406.759 471.497 406.759 471.74C406.759 471.975 406.759 472.154 406.759 472.275C406.759 472.441 406.764 472.632 406.772 472.849C406.781 473.067 406.79 473.254 406.798 473.41H404.907C404.915 473.289 404.928 473.115 404.946 472.889C404.963 472.662 404.972 472.454 404.972 472.262C404.972 472.14 404.972 471.962 404.972 471.727C404.972 471.492 404.972 471.227 404.972 470.931C404.972 470.627 404.972 470.318 404.972 470.005C404.972 469.683 404.972 469.379 404.972 469.092C404.972 468.805 404.972 468.553 404.972 468.335C404.972 468.118 404.972 467.961 404.972 467.865C404.972 467.744 404.967 467.587 404.959 467.396C404.95 467.196 404.937 467.017 404.92 466.861H406.798ZM419.102 475.146C419.102 474.963 419.102 474.702 419.102 474.363C419.102 474.015 419.102 473.624 419.102 473.189C419.102 472.745 419.102 472.284 419.102 471.806C419.102 471.319 419.102 470.844 419.102 470.383C419.102 469.914 419.102 469.479 419.102 469.079C419.102 468.679 419.102 468.344 419.102 468.074C419.102 467.935 419.098 467.774 419.089 467.591C419.089 467.409 419.08 467.226 419.063 467.043C419.045 466.861 419.024 466.704 418.997 466.574H420.942C420.915 466.774 420.889 467.022 420.863 467.317C420.837 467.604 420.824 467.857 420.824 468.074C420.824 468.335 420.824 468.648 420.824 469.014C420.824 469.37 420.824 469.757 420.824 470.175C420.824 470.584 420.824 471.001 420.824 471.427C420.824 471.853 420.824 472.271 420.824 472.68C420.824 473.089 420.824 473.463 420.824 473.802C420.824 474.141 420.824 474.437 420.824 474.689C420.824 474.95 420.863 475.163 420.942 475.328C421.02 475.494 421.176 475.611 421.411 475.681C421.655 475.75 422.016 475.785 422.494 475.785C422.955 475.785 423.416 475.768 423.877 475.733C424.347 475.689 424.812 475.637 425.273 475.576C425.734 475.507 426.178 475.428 426.604 475.341L426.552 477.116C426.195 477.168 425.791 477.216 425.338 477.259C424.886 477.303 424.416 477.338 423.929 477.364C423.451 477.39 422.977 477.403 422.507 477.403C421.768 477.403 421.172 477.355 420.72 477.259C420.267 477.172 419.924 477.038 419.689 476.855C419.463 476.672 419.306 476.437 419.219 476.15C419.141 475.863 419.102 475.528 419.102 475.146ZM427.322 469.405C427.261 469.501 427.187 469.618 427.1 469.757C427.021 469.888 426.952 470.009 426.891 470.123C426.752 470.392 426.574 470.697 426.356 471.036C426.147 471.375 425.921 471.723 425.678 472.08C425.434 472.436 425.182 472.775 424.921 473.097C424.669 473.419 424.425 473.693 424.19 473.919L422.755 473.071C423.042 472.819 423.32 472.532 423.59 472.21C423.868 471.88 424.116 471.558 424.334 471.245C424.551 470.923 424.721 470.653 424.843 470.436C424.721 470.453 424.508 470.497 424.203 470.566C423.908 470.627 423.542 470.701 423.107 470.788C422.672 470.875 422.198 470.971 421.685 471.075C421.172 471.171 420.654 471.271 420.133 471.375C419.611 471.479 419.106 471.584 418.619 471.688C418.132 471.784 417.693 471.875 417.301 471.962C416.91 472.04 416.597 472.106 416.362 472.158L416.049 470.449C416.301 470.414 416.632 470.366 417.04 470.305C417.449 470.236 417.906 470.157 418.41 470.07C418.915 469.975 419.441 469.875 419.989 469.77C420.537 469.666 421.081 469.561 421.62 469.457C422.159 469.353 422.664 469.257 423.133 469.17C423.603 469.074 424.012 468.992 424.36 468.922C424.708 468.844 424.969 468.783 425.143 468.74C425.325 468.696 425.495 468.653 425.652 468.609C425.808 468.557 425.947 468.5 426.069 468.439L427.322 469.405ZM435.059 469.131C435.119 469.27 435.198 469.47 435.293 469.731C435.398 469.983 435.506 470.257 435.62 470.553C435.733 470.84 435.833 471.114 435.92 471.375C436.007 471.636 436.076 471.84 436.128 471.988L434.563 472.536C434.528 472.371 434.467 472.162 434.38 471.91C434.293 471.658 434.197 471.392 434.093 471.114C433.989 470.827 433.884 470.553 433.78 470.292C433.676 470.031 433.584 469.814 433.506 469.64L435.059 469.131ZM439.873 470.083C439.803 470.292 439.742 470.47 439.69 470.618C439.647 470.766 439.603 470.905 439.56 471.036C439.395 471.697 439.168 472.358 438.881 473.019C438.594 473.671 438.229 474.285 437.785 474.859C437.177 475.641 436.485 476.307 435.711 476.855C434.945 477.394 434.18 477.807 433.415 478.094L432.045 476.698C432.523 476.568 433.028 476.376 433.558 476.124C434.089 475.863 434.602 475.55 435.098 475.185C435.593 474.82 436.02 474.415 436.376 473.971C436.672 473.597 436.933 473.171 437.159 472.693C437.394 472.206 437.585 471.688 437.733 471.14C437.89 470.584 437.994 470.036 438.046 469.496L439.873 470.083ZM432.032 469.822C432.119 469.988 432.214 470.201 432.319 470.462C432.432 470.723 432.545 470.997 432.658 471.284C432.771 471.571 432.88 471.849 432.984 472.119C433.097 472.388 433.184 472.615 433.245 472.797L431.653 473.397C431.601 473.223 431.523 472.997 431.418 472.719C431.323 472.441 431.214 472.149 431.092 471.845C430.97 471.532 430.853 471.245 430.74 470.984C430.636 470.723 430.544 470.523 430.466 470.383L432.032 469.822ZM445.614 475.628C445.614 475.463 445.614 475.194 445.614 474.82C445.614 474.437 445.614 473.998 445.614 473.502C445.614 472.997 445.614 472.471 445.614 471.923C445.614 471.375 445.614 470.849 445.614 470.344C445.614 469.831 445.614 469.379 445.614 468.987C445.614 468.596 445.614 468.309 445.614 468.126C445.614 467.9 445.601 467.639 445.575 467.343C445.557 467.048 445.527 466.787 445.483 466.561H447.519C447.492 466.787 447.466 467.039 447.44 467.317C447.414 467.587 447.401 467.857 447.401 468.126C447.401 468.37 447.401 468.7 447.401 469.118C447.401 469.535 447.401 470.001 447.401 470.514C447.401 471.018 447.401 471.536 447.401 472.067C447.401 472.588 447.401 473.093 447.401 473.58C447.401 474.067 447.401 474.493 447.401 474.859C447.401 475.215 447.401 475.472 447.401 475.628C447.401 475.75 447.405 475.924 447.414 476.15C447.423 476.368 447.44 476.594 447.466 476.829C447.492 477.064 447.51 477.272 447.519 477.455H445.483C445.518 477.194 445.548 476.89 445.575 476.542C445.601 476.194 445.614 475.889 445.614 475.628ZM447.01 469.94C447.445 470.053 447.932 470.201 448.471 470.383C449.01 470.557 449.554 470.744 450.102 470.944C450.65 471.145 451.163 471.345 451.641 471.545C452.129 471.736 452.533 471.914 452.855 472.08L452.111 473.88C451.746 473.689 451.341 473.497 450.898 473.306C450.454 473.106 450.002 472.915 449.541 472.732C449.089 472.549 448.641 472.38 448.197 472.223C447.762 472.067 447.366 471.927 447.01 471.806V469.94Z" fill="#111827" fill-opacity="0.54"></path>
<rect x="99.6685" y="151.506" width="30.1608" height="30.1608" rx="6.28349" fill="#F6F7F8"></rect>
<path fill-rule="evenodd" clip-rule="evenodd" d="M121.281 165.652H110.711L114.852 161.512C115.222 161.141 115.222 160.536 114.852 160.166C114.481 159.795 113.875 159.795 113.506 160.166L107.766 165.904C107.579 166.093 107.488 166.341 107.491 166.59C107.491 166.596 107.489 166.6 107.489 166.605V166.606C107.489 166.612 107.494 166.62 107.494 166.628C107.497 166.745 107.518 166.86 107.563 166.97C107.591 167.036 107.639 167.09 107.682 167.149C107.712 167.191 107.729 167.24 107.766 167.277L113.506 173.016C113.875 173.385 114.481 173.385 114.852 173.016C115.222 172.645 115.222 172.039 114.852 171.669L110.741 167.557H121.281C121.805 167.557 122.233 167.128 122.233 166.606C122.233 166.081 121.805 165.652 121.281 165.652Z" fill="#6B7280"></path>
<path d="M160.794 161.107C160.794 161.3 160.861 161.463 160.995 161.597C161.129 161.723 161.293 161.786 161.485 161.786C161.67 161.786 161.829 161.723 161.963 161.597C162.097 161.463 162.164 161.3 162.164 161.107C162.164 160.923 162.097 160.764 161.963 160.63C161.829 160.496 161.67 160.429 161.485 160.429C161.293 160.429 161.129 160.496 160.995 160.63C160.861 160.764 160.794 160.923 160.794 161.107ZM160.028 161.107C160.028 160.839 160.09 160.596 160.216 160.378C160.35 160.16 160.526 159.985 160.744 159.85C160.97 159.716 161.217 159.649 161.485 159.649C161.753 159.649 161.996 159.716 162.214 159.85C162.432 159.985 162.604 160.16 162.729 160.378C162.863 160.596 162.93 160.839 162.93 161.107C162.93 161.375 162.863 161.622 162.729 161.849C162.604 162.066 162.432 162.242 162.214 162.376C161.996 162.502 161.753 162.565 161.485 162.565C161.217 162.565 160.97 162.502 160.744 162.376C160.526 162.242 160.35 162.066 160.216 161.849C160.09 161.622 160.028 161.375 160.028 161.107ZM158.293 160.617C158.285 160.676 158.272 160.772 158.256 160.906C158.239 161.04 158.222 161.183 158.205 161.333C158.189 161.476 158.18 161.601 158.18 161.71C158.18 161.962 158.18 162.238 158.18 162.54C158.18 162.841 158.18 163.143 158.18 163.445C158.18 163.738 158.18 164.006 158.18 164.249C158.18 164.416 158.18 164.651 158.18 164.953C158.18 165.254 158.18 165.594 158.18 165.971C158.18 166.348 158.18 166.741 158.18 167.152C158.18 167.554 158.18 167.948 158.18 168.333C158.18 168.71 158.18 169.054 158.18 169.364C158.18 169.665 158.18 169.904 158.18 170.08C158.18 170.44 158.071 170.725 157.853 170.935C157.644 171.152 157.317 171.261 156.873 171.261C156.647 171.261 156.417 171.257 156.182 171.249C155.947 171.24 155.717 171.228 155.491 171.211C155.265 171.194 155.043 171.173 154.825 171.148L154.674 169.59C154.942 169.64 155.202 169.678 155.453 169.703C155.713 169.728 155.918 169.741 156.069 169.741C156.236 169.741 156.354 169.707 156.421 169.64C156.488 169.565 156.526 169.447 156.534 169.288C156.534 169.213 156.534 169.049 156.534 168.798C156.542 168.547 156.546 168.249 156.546 167.906C156.546 167.562 156.546 167.198 156.546 166.813C156.546 166.427 156.546 166.059 156.546 165.707C156.546 165.355 156.546 165.049 156.546 164.789C156.546 164.53 156.546 164.349 156.546 164.249C156.546 164.098 156.546 163.872 156.546 163.57C156.546 163.26 156.546 162.934 156.546 162.59C156.546 162.247 156.546 161.953 156.546 161.71C156.546 161.543 156.534 161.346 156.509 161.12C156.484 160.885 156.458 160.718 156.433 160.617H158.293ZM152.135 162.615C152.328 162.64 152.529 162.665 152.739 162.691C152.948 162.707 153.153 162.716 153.354 162.716C153.455 162.716 153.656 162.716 153.958 162.716C154.268 162.716 154.636 162.716 155.064 162.716C155.491 162.716 155.947 162.716 156.433 162.716C156.928 162.716 157.422 162.716 157.916 162.716C158.419 162.716 158.884 162.716 159.311 162.716C159.747 162.716 160.124 162.716 160.442 162.716C160.761 162.716 160.983 162.716 161.108 162.716C161.284 162.716 161.489 162.707 161.724 162.691C161.967 162.674 162.176 162.653 162.352 162.628V164.274C162.16 164.257 161.95 164.249 161.724 164.249C161.498 164.241 161.297 164.236 161.121 164.236C160.995 164.236 160.773 164.236 160.455 164.236C160.145 164.236 159.772 164.236 159.336 164.236C158.909 164.236 158.448 164.236 157.954 164.236C157.46 164.236 156.965 164.236 156.471 164.236C155.977 164.236 155.516 164.236 155.089 164.236C154.661 164.236 154.293 164.236 153.983 164.236C153.681 164.236 153.472 164.236 153.354 164.236C153.17 164.236 152.965 164.241 152.739 164.249C152.521 164.257 152.32 164.27 152.135 164.287V162.615ZM155.34 166.021C155.198 166.306 155.026 166.611 154.825 166.938C154.624 167.265 154.406 167.592 154.171 167.918C153.945 168.245 153.723 168.551 153.505 168.836C153.287 169.112 153.091 169.343 152.915 169.527L151.557 168.597C151.767 168.404 151.98 168.178 152.198 167.918C152.424 167.65 152.642 167.37 152.852 167.076C153.07 166.783 153.266 166.49 153.442 166.197C153.627 165.904 153.786 165.623 153.92 165.355L155.34 166.021ZM160.744 165.317C160.903 165.518 161.079 165.757 161.272 166.033C161.473 166.31 161.674 166.607 161.875 166.926C162.076 167.236 162.264 167.541 162.44 167.843C162.616 168.136 162.767 168.396 162.893 168.622L161.41 169.427C161.276 169.158 161.121 168.869 160.945 168.559C160.777 168.249 160.601 167.939 160.417 167.629C160.233 167.319 160.048 167.03 159.864 166.762C159.688 166.486 159.525 166.251 159.374 166.059L160.744 165.317ZM165.306 161.509C165.624 161.509 166.03 161.509 166.525 161.509C167.019 161.501 167.538 161.484 168.083 161.459C168.628 161.426 169.13 161.375 169.591 161.308C169.909 161.266 170.219 161.216 170.521 161.157C170.831 161.099 171.124 161.04 171.401 160.981C171.685 160.914 171.941 160.843 172.167 160.768C172.402 160.692 172.599 160.621 172.758 160.554L173.788 161.937C173.571 161.987 173.382 162.033 173.223 162.075C173.064 162.117 172.93 162.15 172.821 162.175C172.561 162.242 172.28 162.309 171.979 162.376C171.677 162.435 171.367 162.49 171.049 162.54C170.73 162.59 170.408 162.64 170.081 162.691C169.604 162.758 169.097 162.808 168.56 162.841C168.024 162.875 167.505 162.904 167.002 162.929C166.5 162.946 166.064 162.959 165.695 162.967L165.306 161.509ZM165.846 170.168C166.583 169.833 167.187 169.427 167.656 168.949C168.133 168.463 168.485 167.906 168.711 167.278C168.946 166.641 169.063 165.929 169.063 165.141C169.063 165.141 169.063 165.049 169.063 164.865C169.063 164.672 169.063 164.387 169.063 164.01C169.063 163.625 169.063 163.139 169.063 162.552L170.709 162.364C170.709 162.582 170.709 162.816 170.709 163.068C170.709 163.311 170.709 163.554 170.709 163.796C170.709 164.039 170.709 164.261 170.709 164.463C170.709 164.655 170.709 164.814 170.709 164.94C170.709 165.057 170.709 165.116 170.709 165.116C170.709 165.954 170.605 166.75 170.395 167.504C170.194 168.258 169.855 168.953 169.377 169.59C168.9 170.218 168.255 170.775 167.442 171.261L165.846 170.168ZM164.363 164.513C164.539 164.53 164.728 164.546 164.929 164.563C165.13 164.58 165.327 164.588 165.519 164.588C165.637 164.588 165.859 164.588 166.185 164.588C166.512 164.588 166.906 164.588 167.367 164.588C167.836 164.588 168.338 164.588 168.875 164.588C169.411 164.588 169.947 164.588 170.483 164.588C171.019 164.588 171.522 164.588 171.991 164.588C172.46 164.588 172.863 164.588 173.198 164.588C173.533 164.588 173.759 164.588 173.876 164.588C173.968 164.588 174.086 164.584 174.228 164.576C174.371 164.567 174.513 164.559 174.655 164.551C174.806 164.534 174.928 164.521 175.02 164.513V166.134C174.852 166.117 174.668 166.105 174.467 166.096C174.274 166.088 174.09 166.084 173.914 166.084C173.797 166.084 173.571 166.084 173.235 166.084C172.909 166.084 172.507 166.084 172.029 166.084C171.56 166.084 171.053 166.084 170.508 166.084C169.972 166.084 169.432 166.084 168.887 166.084C168.351 166.084 167.848 166.084 167.379 166.084C166.91 166.084 166.512 166.084 166.185 166.084C165.859 166.084 165.645 166.084 165.544 166.084C165.352 166.084 165.146 166.088 164.929 166.096C164.711 166.105 164.522 166.117 164.363 166.134V164.513ZM181.404 160.517C181.337 160.734 181.278 160.952 181.228 161.17C181.186 161.379 181.144 161.589 181.102 161.798C181.06 161.999 181.01 162.23 180.952 162.49C180.901 162.749 180.843 163.026 180.776 163.319C180.717 163.604 180.65 163.893 180.575 164.186C180.507 164.479 180.436 164.768 180.361 165.053C180.285 165.33 180.214 165.585 180.147 165.82C180.658 165.535 181.165 165.334 181.668 165.217C182.171 165.091 182.703 165.028 183.264 165.028C183.942 165.028 184.533 165.141 185.036 165.367C185.547 165.594 185.941 165.908 186.217 166.31C186.502 166.712 186.644 167.181 186.644 167.717C186.644 168.421 186.481 169.016 186.154 169.502C185.836 169.988 185.375 170.369 184.772 170.645C184.177 170.922 183.461 171.098 182.623 171.173C181.794 171.249 180.872 171.232 179.858 171.123L179.418 169.502C180.105 169.619 180.776 169.678 181.429 169.678C182.091 169.678 182.686 169.615 183.214 169.489C183.741 169.364 184.16 169.163 184.47 168.886C184.789 168.601 184.948 168.228 184.948 167.768C184.948 167.391 184.789 167.068 184.47 166.8C184.152 166.524 183.687 166.385 183.075 166.385C182.346 166.385 181.676 166.511 181.065 166.762C180.461 167.014 179.971 167.378 179.594 167.856C179.536 167.948 179.477 168.036 179.418 168.12C179.368 168.203 179.309 168.3 179.242 168.409L177.76 167.881C177.994 167.428 178.212 166.913 178.413 166.335C178.614 165.757 178.794 165.175 178.953 164.588C179.113 164.002 179.242 163.457 179.343 162.955C179.443 162.443 179.515 162.029 179.557 161.71C179.598 161.442 179.624 161.216 179.632 161.032C179.64 160.839 179.636 160.642 179.619 160.441L181.404 160.517ZM177.018 161.987C177.42 162.054 177.856 162.113 178.325 162.163C178.794 162.205 179.226 162.226 179.619 162.226C180.022 162.226 180.461 162.213 180.939 162.188C181.425 162.163 181.936 162.125 182.472 162.075C183.008 162.025 183.545 161.962 184.081 161.886C184.625 161.803 185.157 161.706 185.677 161.597L185.702 163.093C185.3 163.16 184.843 163.227 184.332 163.294C183.829 163.361 183.302 163.424 182.749 163.482C182.196 163.533 181.651 163.574 181.115 163.608C180.579 163.642 180.084 163.658 179.632 163.658C179.146 163.658 178.681 163.65 178.237 163.633C177.801 163.608 177.395 163.579 177.018 163.545V161.987ZM194.335 164.236C194.151 164.044 193.933 163.834 193.682 163.608C193.431 163.382 193.192 163.189 192.966 163.03L194.071 162.213C194.197 162.288 194.348 162.402 194.524 162.552C194.708 162.703 194.884 162.858 195.052 163.017C195.219 163.168 195.353 163.302 195.454 163.419L194.335 164.236ZM191.759 163.206C191.818 163.323 191.885 163.453 191.96 163.595C192.036 163.738 192.094 163.855 192.136 163.947C192.262 164.174 192.408 164.463 192.576 164.814C192.752 165.158 192.924 165.514 193.091 165.883C193.259 166.251 193.401 166.582 193.519 166.875C193.636 167.152 193.766 167.483 193.908 167.868C194.059 168.254 194.206 168.656 194.348 169.075C194.499 169.485 194.637 169.883 194.763 170.268C194.897 170.654 195.006 170.989 195.089 171.274L193.506 171.651C193.405 171.232 193.276 170.775 193.116 170.281C192.966 169.778 192.802 169.284 192.626 168.798C192.45 168.312 192.287 167.877 192.136 167.491C192.002 167.181 191.855 166.85 191.696 166.498C191.537 166.138 191.378 165.799 191.219 165.48C191.068 165.162 190.926 164.894 190.791 164.676C190.724 164.559 190.636 164.421 190.528 164.261C190.427 164.094 190.318 163.943 190.201 163.809L191.759 163.206ZM189.221 166.197C189.464 166.138 189.69 166.075 189.899 166.008C190.109 165.941 190.255 165.891 190.339 165.857C190.708 165.715 191.097 165.556 191.508 165.38C191.918 165.204 192.333 165.028 192.752 164.852C193.179 164.676 193.598 164.517 194.009 164.375C194.419 164.224 194.809 164.102 195.177 164.01C195.546 163.918 195.885 163.872 196.195 163.872C196.807 163.872 197.305 163.981 197.691 164.199C198.085 164.416 198.374 164.697 198.558 165.041C198.751 165.376 198.847 165.732 198.847 166.109C198.847 166.88 198.625 167.491 198.181 167.944C197.737 168.396 197.046 168.622 196.107 168.622C195.839 168.622 195.554 168.589 195.253 168.522C194.96 168.446 194.721 168.375 194.536 168.308L194.574 166.863C194.8 166.963 195.039 167.047 195.29 167.114C195.55 167.173 195.785 167.202 195.994 167.202C196.287 167.202 196.526 167.156 196.711 167.064C196.903 166.972 197.046 166.846 197.138 166.687C197.238 166.519 197.289 166.327 197.289 166.109C197.289 165.966 197.247 165.832 197.163 165.707C197.079 165.573 196.953 165.468 196.786 165.392C196.618 165.309 196.401 165.267 196.132 165.267C195.806 165.267 195.416 165.338 194.964 165.48C194.511 165.615 194.034 165.79 193.531 166.008C193.028 166.218 192.538 166.44 192.061 166.674C191.583 166.901 191.156 167.11 190.779 167.303C190.402 167.495 190.121 167.634 189.937 167.717L189.221 166.197ZM207.619 161.195C207.56 161.279 207.493 161.375 207.418 161.484C207.351 161.585 207.284 161.685 207.217 161.786C207.066 162.012 206.898 162.276 206.714 162.577C206.538 162.871 206.354 163.185 206.161 163.52C205.968 163.847 205.78 164.174 205.595 164.5C205.419 164.827 205.252 165.129 205.093 165.405C205.327 165.271 205.566 165.175 205.809 165.116C206.052 165.057 206.295 165.028 206.538 165.028C207.007 165.028 207.376 165.17 207.644 165.455C207.92 165.732 208.071 166.134 208.096 166.662C208.105 166.846 208.109 167.068 208.109 167.328C208.109 167.588 208.109 167.847 208.109 168.107C208.117 168.367 208.13 168.585 208.146 168.76C208.172 169.003 208.26 169.179 208.41 169.288C208.57 169.389 208.754 169.439 208.963 169.439C209.231 169.439 209.474 169.359 209.692 169.2C209.918 169.041 210.119 168.823 210.295 168.547C210.471 168.262 210.622 167.944 210.748 167.592C210.882 167.231 210.995 166.859 211.087 166.473L212.444 167.579C212.227 168.291 211.95 168.92 211.615 169.464C211.28 170 210.869 170.415 210.383 170.708C209.906 171.01 209.345 171.161 208.699 171.161C208.239 171.161 207.853 171.077 207.543 170.909C207.233 170.75 207.003 170.541 206.852 170.281C206.701 170.013 206.617 169.724 206.601 169.414C206.584 169.188 206.571 168.936 206.563 168.66C206.563 168.383 206.559 168.115 206.55 167.856C206.55 167.588 206.542 167.37 206.525 167.202C206.509 166.984 206.437 166.813 206.312 166.687C206.186 166.561 206.01 166.498 205.784 166.498C205.507 166.498 205.244 166.586 204.992 166.762C204.741 166.938 204.51 167.169 204.301 167.453C204.1 167.738 203.924 168.053 203.773 168.396C203.689 168.58 203.601 168.798 203.509 169.049C203.417 169.301 203.329 169.561 203.245 169.829C203.162 170.097 203.082 170.348 203.007 170.583C202.931 170.826 202.868 171.031 202.818 171.198L201.046 170.595C201.205 170.176 201.398 169.699 201.624 169.163C201.859 168.618 202.114 168.048 202.391 167.453C202.667 166.859 202.948 166.268 203.233 165.682C203.518 165.095 203.79 164.542 204.05 164.023C204.309 163.495 204.54 163.038 204.741 162.653C204.95 162.259 205.109 161.962 205.218 161.761C205.302 161.593 205.398 161.405 205.507 161.195C205.616 160.986 205.725 160.747 205.834 160.479L207.619 161.195ZM230.239 165.531C230.784 166.821 231.63 167.868 232.778 168.672C233.934 169.468 235.413 170.005 237.214 170.281C237.105 170.39 236.988 170.528 236.862 170.696C236.736 170.872 236.619 171.048 236.51 171.224C236.401 171.408 236.309 171.571 236.234 171.714C234.969 171.462 233.863 171.085 232.916 170.583C231.978 170.08 231.173 169.443 230.503 168.672C229.841 167.893 229.284 166.98 228.832 165.933L230.239 165.531ZM227.487 161.421H235.542V162.879H227.487V161.421ZM227.726 164.739H234.876V166.147H227.726V164.739ZM230.893 159.838H232.451V165.292H230.893V159.838ZM226.658 161.421H228.178V164.538C228.178 165.049 228.157 165.615 228.115 166.234C228.074 166.846 227.994 167.474 227.877 168.12C227.768 168.765 227.6 169.389 227.374 169.992C227.156 170.587 226.863 171.127 226.494 171.613C226.419 171.513 226.302 171.395 226.142 171.261C225.992 171.136 225.832 171.01 225.665 170.884C225.506 170.767 225.372 170.683 225.263 170.633C225.581 170.197 225.832 169.724 226.017 169.213C226.209 168.693 226.352 168.161 226.444 167.617C226.536 167.064 226.595 166.528 226.62 166.008C226.645 165.48 226.658 164.99 226.658 164.538V161.421ZM235.228 161.421H235.467L235.731 161.371L236.912 161.648C236.761 162.159 236.586 162.674 236.384 163.193C236.192 163.704 235.999 164.14 235.806 164.5L234.399 164.123C234.55 163.805 234.701 163.415 234.851 162.955C235.002 162.494 235.128 162.054 235.228 161.635V161.421ZM234.512 164.739H234.826L235.103 164.689L236.108 165.217C235.806 166.147 235.4 166.968 234.889 167.68C234.386 168.383 233.8 168.995 233.13 169.514C232.468 170.034 231.739 170.465 230.943 170.809C230.147 171.161 229.301 171.437 228.404 171.638C228.363 171.504 228.287 171.349 228.178 171.173C228.078 170.997 227.969 170.821 227.851 170.645C227.743 170.47 227.638 170.331 227.537 170.231C228.392 170.072 229.188 169.854 229.925 169.577C230.671 169.292 231.345 168.941 231.948 168.522C232.56 168.103 233.079 167.604 233.507 167.026C233.942 166.448 234.277 165.778 234.512 165.015V164.739ZM243.447 160.403H248.273V161.333H243.447V160.403ZM239.74 161.71H248.185V162.691H239.74V161.71ZM242.165 168.811H247.23V169.351H242.165V168.811ZM242.165 169.703H247.23V170.331H242.165V169.703ZM242.769 159.838H244.289V162.552H242.769V159.838ZM240.657 163.181L246.903 162.992L246.916 163.658L240.682 163.847L240.657 163.181ZM242.769 162.389H244.176V163.646C244.176 163.813 244.226 163.922 244.327 163.972C244.436 164.014 244.654 164.035 244.98 164.035C245.047 164.035 245.156 164.035 245.307 164.035C245.466 164.035 245.646 164.035 245.847 164.035C246.048 164.035 246.25 164.035 246.451 164.035C246.66 164.035 246.849 164.035 247.016 164.035C247.184 164.035 247.309 164.035 247.393 164.035C247.619 164.035 247.774 164.002 247.858 163.935C247.95 163.859 248.013 163.709 248.047 163.482C248.189 163.549 248.357 163.608 248.549 163.658C248.75 163.7 248.935 163.734 249.102 163.759C249.052 164.153 248.914 164.421 248.688 164.563C248.461 164.697 248.089 164.764 247.569 164.764C247.494 164.764 247.364 164.764 247.18 164.764C247.004 164.764 246.794 164.764 246.551 164.764C246.317 164.764 246.082 164.764 245.847 164.764C245.621 164.764 245.416 164.764 245.232 164.764C245.056 164.764 244.93 164.764 244.855 164.764C244.335 164.764 243.92 164.735 243.61 164.676C243.301 164.618 243.083 164.509 242.957 164.349C242.831 164.182 242.769 163.947 242.769 163.646V162.389ZM238.785 161.71H240.255V164.965C240.255 165.451 240.238 165.983 240.205 166.561C240.171 167.131 240.113 167.717 240.029 168.321C239.945 168.924 239.819 169.506 239.652 170.067C239.484 170.629 239.262 171.136 238.986 171.588C238.902 171.504 238.781 171.412 238.621 171.312C238.462 171.211 238.299 171.115 238.131 171.023C237.964 170.939 237.817 170.876 237.691 170.834C237.951 170.415 238.152 169.954 238.295 169.452C238.437 168.949 238.542 168.438 238.609 167.918C238.684 167.391 238.73 166.875 238.747 166.373C238.772 165.862 238.785 165.388 238.785 164.953V161.71ZM247.695 161.71H247.921L248.16 161.648L249.278 161.937C249.169 162.263 249.044 162.594 248.901 162.929C248.759 163.256 248.621 163.537 248.486 163.771L247.217 163.369C247.309 163.168 247.397 162.934 247.481 162.665C247.573 162.389 247.644 162.129 247.695 161.886V161.71ZM243.9 165.279H245.257V167.303H243.9V165.279ZM242.09 166.586V166.938H247.154V166.586H242.09ZM242.09 165.669V166.021H247.154V165.669H242.09ZM240.72 165.103H248.587V167.516H240.72V165.103ZM241.361 167.856H247.192V168.471H242.794V171.663H241.361V167.856ZM246.488 167.856H247.946V170.583C247.946 170.868 247.908 171.077 247.833 171.211C247.766 171.345 247.636 171.45 247.443 171.525C247.259 171.601 247.029 171.642 246.752 171.651C246.484 171.668 246.174 171.676 245.822 171.676C245.78 171.517 245.722 171.353 245.646 171.186C245.579 171.027 245.512 170.876 245.445 170.733C245.621 170.742 245.793 170.746 245.961 170.746C246.136 170.754 246.254 170.759 246.312 170.759C246.371 170.759 246.413 170.746 246.438 170.721C246.472 170.696 246.488 170.65 246.488 170.583V167.856ZM256.542 165.644C256.659 166.381 256.831 167.022 257.057 167.567C257.292 168.111 257.61 168.568 258.012 168.936C258.423 169.305 258.942 169.594 259.571 169.804C260.207 170.005 260.982 170.139 261.895 170.206C261.795 170.315 261.686 170.457 261.569 170.633C261.46 170.809 261.359 170.989 261.267 171.173C261.175 171.358 261.1 171.525 261.041 171.676C260.027 171.55 259.177 171.345 258.49 171.06C257.803 170.775 257.241 170.394 256.806 169.917C256.379 169.439 256.035 168.857 255.775 168.17C255.524 167.474 255.319 166.658 255.16 165.719L256.542 165.644ZM255.109 164.978H256.718C256.659 165.656 256.58 166.289 256.479 166.875C256.379 167.462 256.215 168.002 255.989 168.497C255.763 168.991 255.444 169.439 255.034 169.841C254.623 170.243 254.083 170.595 253.413 170.897C252.751 171.207 251.93 171.467 250.95 171.676C250.908 171.55 250.841 171.404 250.749 171.236C250.665 171.069 250.568 170.905 250.459 170.746C250.359 170.595 250.258 170.465 250.158 170.356C251.046 170.189 251.783 169.988 252.37 169.753C252.956 169.51 253.421 169.23 253.765 168.911C254.116 168.593 254.38 168.237 254.556 167.843C254.741 167.449 254.866 167.014 254.933 166.536C255.009 166.059 255.067 165.539 255.109 164.978ZM256.554 160.491C256.672 161.162 256.844 161.748 257.07 162.251C257.296 162.745 257.602 163.16 257.987 163.495C258.373 163.822 258.863 164.081 259.457 164.274C260.052 164.458 260.781 164.58 261.644 164.638C261.552 164.747 261.451 164.886 261.343 165.053C261.242 165.221 261.146 165.392 261.053 165.568C260.961 165.736 260.89 165.891 260.84 166.033C259.885 165.916 259.08 165.728 258.427 165.468C257.782 165.2 257.25 164.848 256.831 164.412C256.42 163.977 256.09 163.44 255.838 162.804C255.587 162.167 255.382 161.417 255.222 160.554L256.554 160.491ZM255.109 159.85H256.68C256.63 160.504 256.55 161.107 256.441 161.66C256.341 162.205 256.177 162.707 255.951 163.168C255.733 163.621 255.423 164.027 255.021 164.387C254.619 164.747 254.096 165.062 253.45 165.33C252.814 165.598 252.022 165.824 251.075 166.008C251.017 165.824 250.912 165.606 250.761 165.355C250.61 165.103 250.468 164.902 250.334 164.752C251.18 164.618 251.884 164.446 252.445 164.236C253.006 164.027 253.455 163.784 253.79 163.507C254.133 163.223 254.393 162.9 254.569 162.54C254.745 162.18 254.866 161.777 254.933 161.333C255.009 160.889 255.067 160.395 255.109 159.85ZM252.772 160.705L253.966 161.095C253.815 161.564 253.61 162.008 253.35 162.427C253.099 162.837 252.742 163.177 252.282 163.445L251.214 162.665C251.607 162.456 251.934 162.175 252.194 161.823C252.462 161.472 252.655 161.099 252.772 160.705ZM259.043 160.655L260.475 161.044C260.224 161.421 259.96 161.794 259.684 162.163C259.416 162.531 259.164 162.846 258.93 163.105L257.736 162.716C257.887 162.531 258.042 162.322 258.201 162.087C258.368 161.844 258.527 161.597 258.678 161.346C258.829 161.095 258.951 160.864 259.043 160.655ZM252.659 165.971L253.89 166.373C253.739 166.867 253.534 167.332 253.274 167.768C253.015 168.195 252.646 168.547 252.169 168.823L251.05 168.082C251.461 167.856 251.8 167.558 252.068 167.19C252.336 166.813 252.533 166.406 252.659 165.971ZM258.942 165.996L260.438 166.461C260.17 166.838 259.893 167.206 259.608 167.567C259.332 167.927 259.076 168.237 258.842 168.497L257.598 168.044C257.757 167.86 257.916 167.65 258.075 167.416C258.243 167.181 258.402 166.942 258.553 166.699C258.712 166.448 258.842 166.214 258.942 165.996ZM266.432 163.545H273.796V164.827H266.432V163.545ZM270.177 166.536H273.633V167.805H270.177V166.536ZM265.527 170.067H274.211V171.374H265.527V170.067ZM269.486 164.098H270.931V170.821H269.486V164.098ZM266.834 166.109H268.192V170.759H266.834V166.109ZM265.188 161.258H274.186V162.603H265.188V161.258ZM264.371 161.258H265.804V165.015C265.804 165.518 265.779 166.067 265.728 166.662C265.678 167.248 265.582 167.843 265.439 168.446C265.297 169.049 265.092 169.628 264.824 170.181C264.555 170.733 264.204 171.228 263.768 171.663C263.693 171.563 263.588 171.446 263.454 171.312C263.32 171.177 263.181 171.048 263.039 170.922C262.905 170.796 262.788 170.708 262.687 170.658C263.073 170.256 263.374 169.824 263.592 169.364C263.818 168.894 263.986 168.413 264.095 167.918C264.212 167.416 264.287 166.917 264.321 166.423C264.354 165.92 264.371 165.447 264.371 165.003V161.258ZM268.104 159.85H269.687V162.1H268.104V159.85ZM262.423 162.816L263.517 162.276C263.726 162.636 263.919 163.034 264.095 163.47C264.271 163.905 264.388 164.282 264.447 164.601L263.278 165.229C263.244 165.011 263.181 164.764 263.089 164.488C263.006 164.211 262.905 163.931 262.788 163.646C262.67 163.352 262.549 163.076 262.423 162.816ZM262.323 167.114C262.624 166.997 262.976 166.838 263.378 166.637C263.789 166.436 264.212 166.23 264.648 166.021L264.999 167.202C264.631 167.428 264.254 167.655 263.868 167.881C263.491 168.107 263.123 168.325 262.763 168.534L262.323 167.114Z" fill="#0C1924" fill-opacity="0.6"></path>
<g opacity="0.6">
<path fill-rule="evenodd" clip-rule="evenodd" d="M298.786 159.888C298.964 159.888 299.134 159.958 299.26 160.084L301.548 162.373C301.81 162.634 301.81 163.059 301.548 163.32L294.683 170.187C294.572 170.298 294.426 170.366 294.269 170.38L291.752 170.609C291.554 170.627 291.358 170.556 291.217 170.416C291.077 170.275 291.006 170.079 291.024 169.881L291.253 167.363C291.267 167.207 291.335 167.061 291.446 166.95L298.312 160.084C298.438 159.958 298.608 159.888 298.786 159.888ZM297.674 162.618L299.015 163.958L300.127 162.847L298.786 161.506L297.674 162.618ZM298.067 164.906L296.726 163.566L292.566 167.726L292.432 169.201L293.906 169.067L298.067 164.906Z" fill="black"></path>
<path fill-rule="evenodd" clip-rule="evenodd" d="M298.729 173.293H290.687V171.952H298.729V173.293Z" fill="black"></path>
</g>
<ellipse cx="85.3431" cy="125.868" rx="6.78649" ry="6.78649" fill="#E87975"></ellipse>
<ellipse cx="109.096" cy="125.868" rx="6.78649" ry="6.78649" fill="#F9E065"></ellipse>
<ellipse cx="132.848" cy="125.868" rx="6.78649" ry="6.78649" fill="#78DB89"></ellipse>
<path d="M376.084 380.007C381.286 382.847 371.109 405.319 371.109 405.319L373.489 409.58L379.859 421.633L369.663 426.817L357.616 432.169L353.521 417.515L339.122 402.89L324.911 385.832C324.911 385.832 324.538 383.227 325.473 382.102C326.224 381.198 328.197 380.796 328.197 380.796C328.197 380.796 326.818 379.599 327.684 378.052C328.55 376.504 329.411 376.509 329.411 376.509C329.411 376.509 329.251 374.988 330.712 373.411C332.173 371.834 334.385 373.299 334.385 373.299C334.385 373.299 334.454 371.648 335.658 370.466C336.476 369.869 338.06 369.653 339.057 369.89L365.963 386.028C365.963 386.028 370.881 377.167 376.084 380.007Z" fill="#F4F1E9" stroke="#202D37" stroke-width="4.28812"></path>
<rect width="10.237" height="2.14524" rx="1.07262" transform="matrix(-0.714408 -0.70067 -0.697697 0.715432 342.25 391.767)" fill="#F79374"></rect>
<rect width="10.237" height="2.14524" rx="1.07262" transform="matrix(-0.714408 -0.70067 -0.697697 0.715432 342.25 391.767)" fill="#F79374"></rect>
<rect width="10.237" height="2.14524" rx="1.07262" transform="matrix(-0.714408 -0.70067 -0.697697 0.715432 342.25 391.767)" fill="#202D37"></rect>
<rect width="12.5433" height="2.14351" rx="1.07175" transform="matrix(-0.76953 -0.638721 -0.633449 0.773689 346.462 388.673)" fill="#F79374"></rect>
<rect width="12.5433" height="2.14351" rx="1.07175" transform="matrix(-0.76953 -0.638721 -0.633449 0.773689 346.462 388.673)" fill="#F79374"></rect>
<rect width="12.5433" height="2.14351" rx="1.07175" transform="matrix(-0.76953 -0.638721 -0.633449 0.773689 346.462 388.673)" fill="#202D37"></rect>
<rect width="15.0841" height="2.04572" rx="1.02286" transform="matrix(-0.843687 -0.536133 -0.528481 0.849409 352.887 385.747)" fill="#F79374"></rect>
<rect width="15.0841" height="2.04572" rx="1.02286" transform="matrix(-0.843687 -0.536133 -0.528481 0.849409 352.887 385.747)" fill="#F79374"></rect>
<rect width="15.0841" height="2.04572" rx="1.02286" transform="matrix(-0.843687 -0.536133 -0.528481 0.849409 352.887 385.747)" fill="#202D37"></rect>
<path d="M382.04 417.003C382.04 417.003 388.472 427.009 404.91 444.876C410.627 431.297 422.062 412 435.641 389.845C449.22 367.69 475.664 355.54 475.664 355.54L469.946 460.599C469.946 460.599 450.65 483.469 442.788 489.186C434.927 494.904 431.353 502.766 417.774 507.768C359.885 496.333 352.023 427.009 352.023 427.009L382.04 417.003Z" fill="white"></path>
<path d="M382.04 417.003C382.04 417.003 388.472 427.009 404.91 444.876C410.627 431.297 422.062 412 435.641 389.845C449.22 367.69 475.664 355.54 475.664 355.54L469.946 460.599C469.946 460.599 450.65 483.469 442.788 489.186C434.927 494.904 431.353 502.766 417.774 507.768C359.885 496.333 352.023 427.009 352.023 427.009L382.04 417.003Z" stroke="#202D37" stroke-width="4.28812"></path>
<path d="M492.039 570.661C533.605 574.234 595.237 560.655 595.237 560.655C585.203 374.111 515.685 351.967 515.685 351.967L476.273 355.528C476.273 355.528 454.773 366.963 438.29 395.553C432.096 406.296 433.99 560.655 433.99 560.655C433.99 560.655 450.473 567.087 492.039 570.661Z" fill="white"></path>
<path d="M477.243 354.008L514.255 351.967C514.255 351.967 592.871 355.54 595.015 561.37C595.015 561.37 531.253 576.124 492.1 570.661C492.1 570.661 457.795 569.231 434.21 561.37C434.21 500.621 439.213 441.303 439.213 441.303" stroke="#202D37" stroke-width="4.28812"></path>
<path d="M443.398 295.213C443.445 287.349 454.554 285.464 460.745 289.168L460.687 298.778L460.64 306.641C449.217 307.174 443.351 303.077 443.398 295.213Z" fill="#F4F1E9"></path>
<path d="M443.398 295.213C443.445 287.349 452.306 285.45 458.498 289.155L458.44 298.764L458.393 306.628C446.97 307.16 443.351 303.077 443.398 295.213Z" stroke="#202D37" stroke-width="4.28812"></path>
<path d="M478.83 333.621L510.042 333.808L509.936 351.421L512.827 354.79L494.96 362.652L477.092 355.505L478.724 351.234L478.83 333.621Z" fill="#F4F1E9"></path>
<path d="M478.808 337.398C478.808 337.398 479.268 351.49 478.735 352.322C478.202 353.153 476.378 355.505 476.378 355.505M510.048 332.877C510.048 332.877 508.954 347.38 509.947 349.65C510.941 351.92 512.827 354.791 512.827 354.791" stroke="#202D37" stroke-width="4.28812"></path>
<path d="M529.043 289.177C528.848 321.756 508.519 339.609 491.668 339.508C466.954 339.36 453.54 328.045 453.776 288.726C453.947 260.186 455.203 238.18 492.281 237.279C514.617 237.413 529.215 260.637 529.043 289.177Z" fill="#F4F1E9"></path>
<path d="M523.321 307.26C521.676 319.298 519.637 326.4 508.444 333.991M454.054 298.839C455.7 324.014 464.571 334.958 479.74 338.313" stroke="#202D37" stroke-width="4.28812"></path>
<path d="M492.69 286.936C491.81 286.857 491.04 287.598 491.033 288.622L491.002 293.273C490.995 294.254 491.717 295.173 492.635 295.256C493.515 295.335 494.285 294.594 494.292 293.57L494.323 288.919C494.33 287.938 493.608 287.019 492.69 286.936Z" fill="#202D37"></path>
<path d="M468.922 286.708C468.043 286.629 467.272 287.371 467.265 288.395L467.234 293.003C467.228 293.984 467.949 294.903 468.867 294.986C469.747 295.065 470.518 294.323 470.525 293.299L470.556 288.649C470.562 287.667 469.841 286.791 468.922 286.708Z" fill="#202D37"></path>
<path d="M471.394 314.455C471.394 314.455 471.424 314.479 471.394 314.455C476.541 318.429 482.885 318.188 488.041 313.805C488.61 313.336 488.655 312.493 488.192 311.922C487.729 311.351 486.892 311.309 486.323 311.777C482.103 315.353 477.153 315.549 473.028 312.355C472.47 311.903 471.62 311.997 471.174 312.614C470.723 313.178 470.836 314.003 471.394 314.455Z" fill="#202D37"></path>
<path d="M454.783 293.061C454.783 293.061 448.876 283.447 451.12 264.075C453.757 265.042 451.257 264.847 456.702 264.994L454.783 293.061Z" fill="#202D37"></path>
<path d="M465.133 268.304C464.92 266.75 463.619 260.53 463.619 260.53C463.619 260.53 454.423 260.682 449.458 259.491C453.3 269.672 461.674 268.762 465.133 268.304Z" fill="#202D37" stroke="#202D37" stroke-width="1.5655"></path>
<path d="M484.055 270.511C484.076 267.041 483.649 260.297 483.649 260.297C476.915 259.133 471.939 257.379 471.939 257.379C471.939 257.379 478.527 268.048 484.055 270.511Z" fill="#202D37" stroke="#202D37" stroke-width="1.5655"></path>
<path d="M485.407 259.609C485.407 259.609 490.575 267.453 495.819 270.061C495.819 270.061 499.977 260.61 498.177 255.289L485.407 259.609Z" fill="#202D37" stroke="#202D37" stroke-width="1.5655"></path>
<path d="M475.678 269.649C474.683 267.447 471.492 257.577 471.492 257.577C469.245 257.564 462.952 257.325 462.952 257.325C462.952 257.325 468.019 269.603 475.678 269.649Z" fill="#202D37" stroke="#202D37" stroke-width="1.5655"></path>
<path d="M451.809 241.934C449.629 241.921 441.715 239.223 441.715 239.223C441.715 239.223 438.21 261.67 457.274 267.402C461.801 261.812 461.814 259.565 493.27 259.753C520.345 259.916 519.243 280.281 520.984 283.512C522.724 286.743 522.595 289.93 525.433 290.866C529.358 292.16 533.51 293.698 533.51 293.698C533.51 293.698 549.392 267.954 536.046 245.405C528.277 229.631 510.334 224.31 490.099 226.436C469.864 228.561 459.676 241.982 451.809 241.934Z" fill="#202D37" stroke="#202D37" stroke-width="1.5655"></path>
<path d="M505.6 232.106L512.543 233.694C512.543 233.694 517.379 229.574 521.555 226.476C512.567 223.566 505.6 232.106 505.6 232.106Z" fill="#202D37"></path>
<path d="M513.464 235.197L505.598 232.284C505.598 232.284 503.491 225.104 501.376 219.358C512.108 222.289 513.464 235.197 513.464 235.197Z" fill="#202D37"></path>
<path d="M535.893 296.451C535.94 288.588 524.855 286.569 518.62 290.199L518.515 307.672C529.931 308.341 535.845 304.315 535.893 296.451Z" fill="#F4F1E9"></path>
<path d="M518.62 290.199C524.855 286.569 535.94 288.588 535.893 296.451C535.845 304.315 529.931 308.341 518.515 307.672" stroke="#202D37" stroke-width="4.28812"></path>
<path d="M515.674 295.838C515.674 295.838 539.426 275.872 526.261 250.964C526.261 250.964 511.485 251.76 502.25 257.086C500.162 258.29 499.88 261.021 501.216 263.028C514.847 283.51 515.674 295.838 515.674 295.838Z" fill="#202D37"></path>
<path d="M554.993 432.726V480.61" stroke="black" stroke-width="1.85819"></path>
<path d="M458.511 392.704L464.943 422.721L454.223 433.441L464.943 494.904" stroke="#202D37" stroke-width="4.28812" stroke-linecap="round" stroke-linejoin="round"></path>
<path d="M527.121 385.557C527.121 385.557 514.353 430.343 515.566 434.196C516.703 437.806 530.15 444.393 530.15 444.393L503.642 500.409" stroke="#2D2727" stroke-width="4.28812" stroke-linecap="round" stroke-linejoin="round"></path>
<path d="M488.76 484.626C487.061 484.626 485.684 483.238 485.684 481.526C485.684 479.814 487.061 478.426 488.76 478.426C490.458 478.426 491.835 479.814 491.835 481.526C491.835 483.238 490.458 484.626 488.76 484.626Z" fill="#202D37"></path>
<path d="M478.828 504.741C477.767 504.397 477.328 502.797 477.847 501.167C478.366 499.537 479.647 498.495 480.709 498.839C481.77 499.182 482.209 500.782 481.69 502.412C481.17 504.042 479.889 505.085 478.828 504.741Z" fill="#202D37"></path>
<path d="M492.101 569.946L514.38 352.681C514.38 352.681 511.199 364.618 494.485 364.618C478.601 364.618 475.917 355.334 475.917 355.334L466.372 567.087C466.372 567.087 467.087 567.379 476.378 568.517C485.669 569.655 492.101 569.946 492.101 569.946Z" fill="#00BD9B" stroke="#202D37" stroke-width="4.28812"></path>
<path d="M585.691 530.203C608.751 407.862 541.055 363.042 521.678 356.228L551.988 438.498C551.988 438.498 539.602 524.343 557.119 534.926C574.635 545.51 585.691 530.203 585.691 530.203Z" fill="white"></path>
<path d="M546.721 486.305C546.721 486.305 546.596 532.554 561.853 537.612C577.109 542.669 586.401 530.282 586.401 530.282C606.259 416.719 544.249 360.183 521.127 354.728" stroke="#202D37" stroke-width="4.28812"></path>
<path d="M551.319 438.637L546.011 486.226" stroke="#202D37" stroke-width="4.28812"></path>
<path d="M556.063 583.078C556.063 583.078 575.946 556.912 584.991 534.563C586.63 530.512 587.61 526.724 588.116 523.236C590.4 507.48 583.007 497.853 583.007 497.853C571.348 495.785 561.772 499.053 550.725 514.772C549.103 517.08 547.45 519.656 545.753 522.523C536.425 538.289 526.437 549.582 521.126 563.157C533.498 571.158 556.063 583.078 556.063 583.078Z" fill="white"></path>
<path d="M550.725 514.772C549.103 517.08 547.45 519.656 545.753 522.523C536.425 538.289 526.437 549.582 521.126 563.157C533.498 571.158 556.063 583.078 556.063 583.078C556.063 583.078 575.946 556.912 584.991 534.563C586.63 530.512 588.505 511.024 589.011 507.536" stroke="#202D37" stroke-width="4.28812"></path>
<path d="M222 39.2208C222 21.4258 236.426 7 254.221 7H356.385C374.18 7 388.605 21.4258 388.605 39.2208V39.2208C388.605 57.0159 374.18 71.4417 356.385 71.4417H254.221C236.426 71.4417 222 57.0159 222 39.2208V39.2208Z" fill="url(#paint2_linear_81_565)" fill-opacity="0.77"></path>
<g filter="url(#filter0_d_81_565)">
<mask id="mask2_81_565" style="mask-type:alpha" maskUnits="userSpaceOnUse" x="240" y="17" width="44" height="44">
<rect x="240.861" y="17.6048" width="42.7933" height="42.7933" rx="21.3967" fill="#D5FFD6"></rect>
</mask>
<g mask="url(#mask2_81_565)">
<rect x="240.861" y="17.6048" width="42.7933" height="42.7933" rx="4.38617" fill="white"></rect>
<path d="M267.607 29.3791C268.359 27.9529 270.371 27.9361 271.164 29.2941L271.237 29.4308L276.37 39.8644H283.635C283.599 40.7721 283.507 41.665 283.361 42.5402H275.972C275.196 42.5399 274.489 42.0984 274.146 41.4025L269.389 31.7345L259.577 50.3634C258.72 51.99 256.317 51.7386 255.816 49.9699L252.545 38.4337H240.869C240.892 37.5273 240.973 36.635 241.106 35.7599H253.029L253.197 35.7668C253.98 35.8316 254.659 36.3433 254.935 37.0793L254.988 37.2414L257.955 47.7043L267.607 29.3791Z" fill="url(#paint3_linear_81_565)" fill-opacity="0.77"></path>
</g>
</g>
<rect x="297.26" y="35.9068" width="4.8768" height="5.6896" rx="2.4384" fill="white"></rect>
<rect x="305.763" y="28.1449" width="4.94591" height="21.7104" rx="2.47296" fill="white"></rect>
<rect x="314.329" y="32.6558" width="4.8768" height="13.0048" rx="2.4384" fill="white"></rect>
<rect x="322.767" y="24.5278" width="4.94591" height="28.9472" rx="2.47296" fill="white"></rect>
<rect x="331.27" y="31.7642" width="4.94591" height="14.4736" rx="2.47296" fill="white"></rect>
<rect x="339.772" y="34.4782" width="4.94591" height="9.04601" rx="2.47296" fill="white"></rect>
<rect x="348.275" y="30.8592" width="4.94591" height="16.2828" rx="2.47296" fill="white"></rect>
<rect x="356.777" y="36.2869" width="4.94591" height="5.4276" rx="2.47296" fill="white"></rect>
</g>
<defs>
<filter id="filter0_d_81_565" x="232.837" y="9.581" width="64.1901" height="64.19" filterUnits="userSpaceOnUse" color-interpolation-filters="sRGB">
<feFlood flood-opacity="0" result="BackgroundImageFix"></feFlood>
<feColorMatrix in="SourceAlpha" type="matrix" values="0 0 0 0 0 0 0 0 0 0 0 0 0 0 0 0 0 0 127 0" result="hardAlpha"></feColorMatrix>
<feOffset dx="2.67458" dy="2.67458"></feOffset>
<feGaussianBlur stdDeviation="5.34917"></feGaussianBlur>
<feComposite in2="hardAlpha" operator="out"></feComposite>
<feColorMatrix type="matrix" values="0 0 0 0 0.464114 0 0 0 0 0.301612 0 0 0 0 0.98412 0 0 0 0.15 0"></feColorMatrix>
<feBlend mode="normal" in2="BackgroundImageFix" result="effect1_dropShadow_81_565"></feBlend>
<feBlend mode="normal" in="SourceGraphic" in2="effect1_dropShadow_81_565" result="shape"></feBlend>
</filter>
<linearGradient id="paint0_linear_81_565" x1="297.967" y1="317.851" x2="380.958" y2="314.297" gradientUnits="userSpaceOnUse">
<stop stop-color="#00BD9B"></stop>
<stop offset="0.719898" stop-color="#00BD9B" stop-opacity="0.623825"></stop>
<stop offset="1" stop-color="#00BD9B" stop-opacity="0"></stop>
</linearGradient>
<linearGradient id="paint1_linear_81_565" x1="295.048" y1="316.392" x2="208.695" y2="316.392" gradientUnits="userSpaceOnUse">
<stop stop-color="#00BD9B"></stop>
<stop offset="1" stop-color="#00BD9B" stop-opacity="0"></stop>
</linearGradient>
<linearGradient id="paint2_linear_81_565" x1="186.857" y1="51.8071" x2="236.227" y2="-28.3107" gradientUnits="userSpaceOnUse">
<stop stop-color="#B59DFF"></stop>
<stop offset="0.484588" stop-color="#248DFF"></stop>
<stop offset="0.990332" stop-color="#00BD9B"></stop>
</linearGradient>
<linearGradient id="paint3_linear_81_565" x1="240.869" y1="29.4765" x2="285.229" y2="33.2115" gradientUnits="userSpaceOnUse">
<stop stop-color="#B59DFF"></stop>
<stop offset="0.498319" stop-color="#248DFF"></stop>
<stop offset="0.990332" stop-color="#47D777"></stop>
</linearGradient>
</defs>
</svg>