<svg width="446" height="306" viewBox="0 0 446 306" fill="none" xmlns="http://www.w3.org/2000/svg">
<mask id="mask0_82_947" style="mask-type:alpha" maskUnits="userSpaceOnUse" x="0" y="0" width="446" height="306">
<rect width="446" height="306" fill="#D9D9D9"></rect>
</mask>
<g mask="url(#mask0_82_947)">
<g filter="url(#filter0_d_82_947)">
<rect x="154" y="18" width="267.712" height="352.699" rx="12.3515" fill="white"></rect>
</g>
<rect x="176.829" y="68.9447" width="222.009" height="293.156" fill="#F9FAFB"></rect>
<path d="M178.374 45.9951H200.836V48.366H178.374V45.9951ZM178.838 33.6031H200.225V36.1451H178.838V33.6031ZM186.538 43.6243L189.422 44.382C188.9 45.2293 188.33 46.1174 187.711 47.0461C187.108 47.9749 186.505 48.8711 185.902 49.7347C185.315 50.5984 184.77 51.356 184.264 52.0078L181.454 51.1279C181.959 50.4761 182.513 49.7184 183.116 48.8548C183.719 47.9912 184.321 47.1032 184.924 46.1907C185.527 45.2782 186.065 44.4227 186.538 43.6243ZM193.626 46.875L196.461 47.5839C195.842 49.0341 195.06 50.2399 194.114 51.2012C193.169 52.1626 192.021 52.9448 190.668 53.5477C189.332 54.1506 187.776 54.615 186 54.9408C184.224 55.283 182.203 55.5437 179.938 55.723C179.84 55.2993 179.686 54.8512 179.474 54.3787C179.278 53.9061 179.066 53.5151 178.838 53.2055C181.576 53.0914 183.922 52.8389 185.878 52.4478C187.849 52.0567 189.471 51.4212 190.741 50.5413C192.012 49.6614 192.974 48.4393 193.626 46.875ZM183.14 51.3235L184.607 49.2459C186.497 49.6207 188.387 50.0525 190.277 50.5413C192.184 51.0139 193.976 51.5027 195.654 52.0078C197.333 52.4967 198.783 52.9611 200.005 53.401L198.245 55.7963C197.056 55.3075 195.654 54.7942 194.041 54.2565C192.444 53.7351 190.709 53.2218 188.835 52.7166C186.977 52.2115 185.079 51.7471 183.14 51.3235ZM185.291 34.5808H188.053V42.9399H185.291V34.5808ZM190.815 34.5808H193.601V42.9399H190.815V34.5808ZM182.725 39.8358V42.1089H196.534V39.8358H182.725ZM179.963 37.5138H199.443V44.4064H179.963V37.5138ZM213.399 43.7954L215.77 42.6222C216.194 43.1762 216.617 43.7872 217.041 44.4553C217.465 45.1071 217.847 45.7589 218.19 46.4107C218.532 47.0461 218.784 47.6246 218.947 48.146L216.405 49.4659C216.259 48.9607 216.022 48.3823 215.697 47.7305C215.387 47.0624 215.029 46.3862 214.621 45.7018C214.23 45.0175 213.823 44.382 213.399 43.7954ZM214.23 36.8783H223.005V39.6647H214.23V36.8783ZM221.734 36.8783H224.569C224.569 36.8783 224.569 36.968 224.569 37.1472C224.569 37.3264 224.569 37.522 224.569 37.7338C224.569 37.9456 224.561 38.1167 224.545 38.2471C224.463 40.9357 224.373 43.2251 224.276 45.1152C224.194 46.9891 224.088 48.5371 223.958 49.7592C223.828 50.9813 223.673 51.9427 223.494 52.6433C223.331 53.344 223.119 53.8573 222.858 54.1832C222.516 54.6557 222.157 54.9816 221.783 55.1608C221.424 55.3401 220.984 55.4704 220.463 55.5519C220.023 55.6171 219.452 55.6497 218.752 55.6497C218.067 55.6497 217.359 55.6415 216.625 55.6252C216.609 55.2016 216.511 54.7046 216.332 54.1343C216.153 53.5803 215.925 53.0914 215.648 52.6678C216.43 52.7329 217.147 52.7737 217.799 52.79C218.45 52.8063 218.931 52.8144 219.241 52.8144C219.501 52.8144 219.705 52.7818 219.852 52.7166C220.015 52.6515 220.169 52.5455 220.316 52.3989C220.512 52.1871 220.683 51.7553 220.829 51.1035C220.976 50.4517 221.098 49.5392 221.196 48.366C221.31 47.1765 221.408 45.6855 221.489 43.8931C221.587 42.1007 221.669 39.958 221.734 37.465V36.8783ZM214.377 32.6988L217.408 33.3832C217.065 34.589 216.65 35.7785 216.161 36.9517C215.688 38.1086 215.167 39.1922 214.597 40.2024C214.026 41.2127 213.432 42.0926 212.812 42.8421C212.617 42.6629 212.364 42.4592 212.055 42.2311C211.745 42.003 211.419 41.783 211.077 41.5712C210.735 41.3593 210.442 41.1883 210.197 41.0579C210.833 40.4061 211.411 39.6403 211.933 38.7604C212.454 37.8642 212.918 36.9028 213.326 35.8762C213.749 34.8334 214.1 33.7742 214.377 32.6988ZM205.749 32.7477L208.34 33.652C208.014 34.2875 207.672 34.9393 207.313 35.6074C206.955 36.2592 206.604 36.8946 206.262 37.5138C205.92 38.1167 205.586 38.6463 205.26 39.1026L203.28 38.296C203.573 37.7908 203.875 37.2205 204.184 36.585C204.494 35.9333 204.787 35.2733 205.064 34.6053C205.341 33.9372 205.57 33.318 205.749 32.7477ZM208.682 35.6563L211.175 36.6828C210.572 37.6116 209.92 38.5893 209.22 39.6158C208.519 40.6261 207.81 41.5956 207.093 42.5244C206.376 43.4532 205.708 44.2679 205.089 44.9686L203.305 44.0642C203.777 43.5102 204.258 42.8829 204.747 42.1822C205.235 41.4816 205.716 40.7564 206.189 40.0069C206.678 39.2573 207.134 38.5078 207.557 37.7583C207.997 36.9924 208.372 36.2917 208.682 35.6563ZM201.985 38.5404L203.378 36.5362C203.802 36.8946 204.242 37.302 204.698 37.7583C205.154 38.1982 205.57 38.6382 205.944 39.0781C206.335 39.5181 206.629 39.9254 206.824 40.3002L205.333 42.5733C205.138 42.1985 204.853 41.7749 204.478 41.3023C204.119 40.8135 203.72 40.3328 203.28 39.8602C202.84 39.3714 202.408 38.9315 201.985 38.5404ZM208.095 41.5467L210.173 40.6424C210.499 41.1801 210.816 41.7586 211.126 42.3778C211.436 42.9969 211.704 43.608 211.933 44.2109C212.161 44.7975 212.332 45.3271 212.446 45.7996L210.197 46.8262C210.099 46.3699 209.945 45.8403 209.733 45.2374C209.521 44.6183 209.268 43.9909 208.975 43.3554C208.698 42.7036 208.405 42.1007 208.095 41.5467ZM201.985 43.5021C203.109 43.4695 204.462 43.4206 206.042 43.3554C207.639 43.2902 209.26 43.2169 210.906 43.1355L210.882 45.4574C209.35 45.5715 207.826 45.6855 206.311 45.7996C204.796 45.8974 203.435 45.9788 202.229 46.044L201.985 43.5021ZM208.511 47.6572L210.662 46.9484C211.004 47.6816 211.322 48.4801 211.615 49.3437C211.908 50.2073 212.12 50.9568 212.25 51.5923L209.977 52.4233C209.863 51.7716 209.668 51.0057 209.391 50.1258C209.114 49.2296 208.82 48.4067 208.511 47.6572ZM203.036 47.095L205.455 47.535C205.325 48.7082 205.13 49.8651 204.869 51.0057C204.608 52.1463 204.307 53.1077 203.965 53.8898C203.802 53.7758 203.582 53.6454 203.305 53.4988C203.028 53.3684 202.742 53.2381 202.449 53.1077C202.172 52.9774 201.928 52.8796 201.716 52.8144C202.074 52.0812 202.36 51.2094 202.571 50.1991C202.783 49.1726 202.938 48.1379 203.036 47.095ZM205.871 44.7975H208.462V55.6985H205.871V44.7975Z" fill="#0C1924" fill-opacity="0.8"></path>
<rect x="193.753" y="91.6171" width="43.488" height="46.6219" rx="4.22312" fill="#0B99FF"></rect>
<path d="M219.562 110.845C219.487 110.089 219.166 109.501 218.597 109.083C218.028 108.664 217.257 108.455 216.282 108.455C215.619 108.455 215.06 108.548 214.604 108.736C214.148 108.917 213.798 109.17 213.554 109.495C213.317 109.82 213.198 110.189 213.198 110.601C213.186 110.945 213.257 111.245 213.414 111.501C213.576 111.757 213.798 111.979 214.079 112.166C214.36 112.348 214.685 112.507 215.054 112.644C215.423 112.776 215.816 112.888 216.235 112.982L217.96 113.394C218.797 113.582 219.565 113.832 220.265 114.144C220.965 114.457 221.571 114.841 222.084 115.297C222.596 115.753 222.993 116.291 223.274 116.909C223.561 117.528 223.708 118.237 223.715 119.037C223.708 120.212 223.408 121.23 222.815 122.092C222.227 122.949 221.378 123.614 220.265 124.089C219.159 124.558 217.825 124.792 216.263 124.792C214.713 124.792 213.364 124.554 212.214 124.08C211.07 123.605 210.177 122.902 209.533 121.971C208.896 121.033 208.561 119.874 208.53 118.493H212.458C212.501 119.137 212.686 119.674 213.011 120.105C213.342 120.53 213.782 120.852 214.332 121.071C214.888 121.283 215.516 121.389 216.216 121.389C216.903 121.389 217.5 121.289 218.006 121.09C218.519 120.89 218.916 120.611 219.197 120.255C219.478 119.899 219.619 119.49 219.619 119.027C219.619 118.596 219.49 118.234 219.234 117.94C218.984 117.646 218.616 117.397 218.128 117.19C217.647 116.984 217.057 116.797 216.357 116.628L214.267 116.103C212.648 115.709 211.37 115.094 210.433 114.257C209.496 113.419 209.03 112.291 209.036 110.873C209.03 109.711 209.339 108.695 209.964 107.827C210.595 106.958 211.461 106.28 212.561 105.793C213.66 105.305 214.91 105.062 216.31 105.062C217.735 105.062 218.978 105.305 220.04 105.793C221.109 106.28 221.94 106.958 222.534 107.827C223.127 108.695 223.433 109.701 223.452 110.845H219.562Z" fill="white"></path>
<rect x="193.753" y="158.737" width="43.488" height="46.6219" rx="4.22312" fill="#6D64FF"></rect>
<path d="M225.249 182.043C225.249 184.136 224.852 185.917 224.059 187.385C223.271 188.854 222.196 189.975 220.834 190.75C219.478 191.519 217.954 191.903 216.26 191.903C214.554 191.903 213.023 191.516 211.667 190.741C210.311 189.966 209.24 188.844 208.452 187.376C207.665 185.907 207.271 184.13 207.271 182.043C207.271 179.949 207.665 178.168 208.452 176.7C209.24 175.232 210.311 174.113 211.667 173.344C213.023 172.57 214.554 172.182 216.26 172.182C217.954 172.182 219.478 172.57 220.834 173.344C222.196 174.113 223.271 175.232 224.059 176.7C224.852 178.168 225.249 179.949 225.249 182.043ZM221.134 182.043C221.134 180.687 220.931 179.543 220.525 178.612C220.125 177.681 219.559 176.975 218.828 176.494C218.097 176.013 217.241 175.772 216.26 175.772C215.279 175.772 214.423 176.013 213.692 176.494C212.961 176.975 212.392 177.681 211.986 178.612C211.586 179.543 211.386 180.687 211.386 182.043C211.386 183.399 211.586 184.542 211.986 185.473C212.392 186.404 212.961 187.11 213.692 187.591C214.423 188.073 215.279 188.313 216.26 188.313C217.241 188.313 218.097 188.073 218.828 187.591C219.559 187.11 220.125 186.404 220.525 185.473C220.931 184.542 221.134 183.399 221.134 182.043Z" fill="white"></path>
<rect x="193.753" y="225.859" width="43.488" height="46.6219" rx="4.22312" fill="#0B99FF"></rect>
<path d="M211.243 258.58H206.894L213.521 239.384H218.751L225.368 258.58H221.019L216.211 243.771H216.061L211.243 258.58ZM210.971 251.035H221.244V254.203H210.971V251.035Z" fill="white"></path>
<rect x="193.753" y="292.98" width="43.488" height="46.6219" rx="4.22312" fill="#6D64FF"></rect>
<g filter="url(#filter1_d_82_947)">
<rect x="245.709" y="91.6181" width="143.505" height="46.3137" rx="9.75026" fill="white"></rect>
</g>
<rect x="257.354" y="101.939" width="104.574" height="8.7076" rx="4.3538" fill="#D4DBEF"></rect>
<rect x="257.354" y="118.73" width="69.7162" height="8.7076" rx="4.3538" fill="#D4DBEF"></rect>
<rect x="262.298" y="164.548" width="104.574" height="8.7076" rx="4.3538" fill="#D4DBEF"></rect>
<rect x="262.298" y="183.777" width="69.7162" height="8.7076" rx="4.3538" fill="#D4DBEF"></rect>
<rect x="262.298" y="230.943" width="104.574" height="8.7076" rx="4.3538" fill="#D4DBEF"></rect>
<rect x="262.298" y="250.172" width="69.7162" height="8.7076" rx="4.3538" fill="#D4DBEF"></rect>
<rect x="262.298" y="287.561" width="104.574" height="8.7076" rx="4.3538" fill="#D4DBEF"></rect>
<path d="M124.903 217.054C124.932 222.66 131.598 225.572 135.73 221.783L192.133 170.074C194.945 167.495 194.922 163.054 192.084 160.505L135.154 109.376C130.983 105.63 124.347 108.61 124.376 114.216L124.477 133.894L51.4481 134.026L3.7241 134.27L4.04876 197.605L36.8218 197.437L124.431 197.303L124.802 197.301L124.903 217.054Z" fill="url(#paint0_linear_82_947)"></path>
<path d="M89.4428 174.703L84.1639 174.796L93.2929 147.325L99.3983 147.218L109.505 174.348L104.226 174.442L96.5511 152.868L96.3378 152.872L89.4428 174.703ZM89.427 163.995L103.824 163.741L103.894 167.714L89.4972 167.968L89.427 163.995ZM116.851 146.909L117.334 174.21L112.388 174.298L111.906 146.997L116.851 146.909Z" fill="white"></path>
<path d="M132.584 181.845C132.799 181.764 132.944 181.557 132.945 181.324C132.946 181.092 132.804 180.883 132.59 180.8L129.9 179.759L128.903 177.019C128.823 176.801 128.619 176.654 128.39 176.653C128.161 176.652 127.955 176.796 127.873 177.014L126.848 179.744L124.147 180.756C123.932 180.838 123.788 181.045 123.787 181.277C123.786 181.51 123.928 181.719 124.142 181.802L126.832 182.842L127.829 185.583C127.909 185.801 128.113 185.947 128.342 185.949C128.571 185.95 128.777 185.806 128.859 185.588L129.884 182.858L132.584 181.845ZM138.42 182.451C138.542 182.728 138.813 182.904 139.109 182.905C139.405 182.907 139.677 182.734 139.803 182.459L142.35 176.952L147.8 174.429C148.073 174.304 148.246 174.029 148.247 173.724C148.249 173.419 148.079 173.147 147.807 173.02L142.378 170.44L139.898 164.908C139.775 164.632 139.504 164.456 139.208 164.455C138.913 164.453 138.64 164.626 138.514 164.901L135.972 170.412L130.517 172.936C130.245 173.06 130.071 173.336 130.07 173.636C130.068 173.936 130.239 174.213 130.51 174.34L135.934 176.914L138.42 182.451ZM129.964 167.365L132.664 166.353C132.879 166.272 133.023 166.064 133.024 165.832C133.025 165.599 132.883 165.39 132.669 165.307L129.98 164.267L128.982 161.526C128.902 161.308 128.698 161.162 128.469 161.161C128.24 161.159 128.034 161.304 127.952 161.521L126.927 164.251L124.227 165.264C124.012 165.345 123.868 165.552 123.866 165.785C123.865 166.017 124.007 166.226 124.221 166.31L126.911 167.35L127.908 170.09C127.988 170.309 128.193 170.455 128.421 170.456C128.65 170.457 128.856 170.313 128.938 170.096L129.964 167.365Z" fill="white"></path>
</g>
<defs>
<filter id="filter0_d_82_947" x="126.572" y="-0.981709" width="314.121" height="399.109" filterUnits="userSpaceOnUse" color-interpolation-filters="sRGB">
<feFlood flood-opacity="0" result="BackgroundImageFix"></feFlood>
<feColorMatrix in="SourceAlpha" type="matrix" values="0 0 0 0 0 0 0 0 0 0 0 0 0 0 0 0 0 0 127 0" result="hardAlpha"></feColorMatrix>
<feOffset dx="-4.22312" dy="4.22312"></feOffset>
<feGaussianBlur stdDeviation="11.6024"></feGaussianBlur>
<feColorMatrix type="matrix" values="0 0 0 0 0.149156 0 0 0 0 0.175824 0 0 0 0 0.4625 0 0 0 0.15 0"></feColorMatrix>
<feBlend mode="normal" in2="BackgroundImageFix" result="effect1_dropShadow_82_947"></feBlend>
<feBlend mode="normal" in="SourceGraphic" in2="effect1_dropShadow_82_947" result="shape"></feBlend>
</filter>
<filter id="filter1_d_82_947" x="230.597" y="76.5052" width="173.73" height="76.5395" filterUnits="userSpaceOnUse" color-interpolation-filters="sRGB">
<feFlood flood-opacity="0" result="BackgroundImageFix"></feFlood>
<feColorMatrix in="SourceAlpha" type="matrix" values="0 0 0 0 0 0 0 0 0 0 0 0 0 0 0 0 0 0 127 0" result="hardAlpha"></feColorMatrix>
<feMorphology radius="0.487513" operator="dilate" in="SourceAlpha" result="effect1_dropShadow_82_947"></feMorphology>
<feOffset></feOffset>
<feGaussianBlur stdDeviation="7.31269"></feGaussianBlur>
<feComposite in2="hardAlpha" operator="out"></feComposite>
<feColorMatrix type="matrix" values="0 0 0 0 0 0 0 0 0 0 0 0 0 0 0 0 0 0 0.07 0"></feColorMatrix>
<feBlend mode="normal" in2="BackgroundImageFix" result="effect1_dropShadow_82_947"></feBlend>
<feBlend mode="normal" in="SourceGraphic" in2="effect1_dropShadow_82_947" result="shape"></feBlend>
</filter>
<linearGradient id="paint0_linear_82_947" x1="12.713" y1="166.275" x2="133.155" y2="193.275" gradientUnits="userSpaceOnUse">
<stop stop-color="#A083FC" stop-opacity="0"></stop>
<stop offset="1" stop-color="#A083FC"></stop>
</linearGradient>
</defs>
</svg>