<svg width="167" height="43" viewBox="0 0 167 43" fill="none" xmlns="http://www.w3.org/2000/svg">
<mask id="mask0_2_177" style="mask-type:alpha" maskUnits="userSpaceOnUse" x="0" y="0" width="42" height="43">
<g clip-path="url(#clip0_2_177)">
<rect y="0.796686" width="41.4065" height="41.4065" rx="6.17312" fill="#D5FFD6"></rect>
</g>
</mask>
<g mask="url(#mask0_2_177)">
<rect y="0.796686" width="41.4065" height="41.4065" rx="6.17312" fill="#F5F5F5"></rect>
<path d="M21.3172 6.36064C20.0948 5.51433 19.1544 4.85609 17.3207 3.53964C17.3207 4.05682 17.3427 7.81821 17.3427 8.31558L17.2405 29.8804L9.74259 22.1009C9.18949 21.4845 8.3873 21.508 7.42738 21.508L-0.592798 21.508L-0.592798 25.2698L6.95848 25.2698L17.4524 36.0013C18.0055 36.6178 19.2627 37.8151 20.015 38.7085L21.5184 40.213C21.5184 38.5204 21.553 35.3515 21.5184 34.4885L21.6675 11.6005L30.1611 17.4436C30.7486 17.8076 30.02 17.3465 31.0384 17.9799L43.0008 17.9799L43.0008 14.3017L32.4286 14.3419L21.3172 6.36064Z" fill="url(#paint0_linear_2_177)"></path>
</g>
<path d="M75.5842 11.9171L68.4608 32H62.3387L55.2152 11.9171H60.4219L65.3997 27.0794L70.4061 11.9171H75.5842ZM92.6767 23.7609C92.6767 24.2186 92.6481 24.6954 92.5908 25.1913H81.5195C81.5958 26.183 81.9105 26.9459 82.4636 27.4799C83.0357 27.9949 83.7319 28.2523 84.552 28.2523C85.7726 28.2523 86.6213 27.7374 87.0981 26.7075H92.3048C92.0378 27.7565 91.5514 28.7005 90.8457 29.5397C90.1592 30.3789 89.2914 31.0369 88.2424 31.5137C87.1934 31.9905 86.0205 32.2289 84.7236 32.2289C83.1597 32.2289 81.7674 31.8951 80.5468 31.2276C79.3262 30.5601 78.3726 29.6065 77.686 28.3668C76.9994 27.1271 76.6561 25.6776 76.6561 24.0183C76.6561 22.3591 76.9899 20.9096 77.6574 19.6699C78.344 18.4302 79.2976 17.4766 80.5182 16.8091C81.7388 16.1416 83.1406 15.8078 84.7236 15.8078C86.2684 15.8078 87.6416 16.132 88.8432 16.7805C90.0447 17.4289 90.9793 18.3539 91.6468 19.5555C92.3334 20.757 92.6767 22.1588 92.6767 23.7609ZM87.6702 22.4735C87.6702 21.6343 87.3842 20.9668 86.812 20.4709C86.2398 19.9751 85.5246 19.7271 84.6664 19.7271C83.8463 19.7271 83.1502 19.9655 82.578 20.4423C82.0249 20.9191 81.6816 21.5962 81.5481 22.4735H87.6702ZM104.155 27.8518V32H101.666C99.8919 32 98.5092 31.5709 97.5175 30.7126C96.5257 29.8353 96.0298 28.4144 96.0298 26.45V20.099H94.0845V16.0367H96.0298V12.146H100.922V16.0367H104.126V20.099H100.922V26.5072C100.922 26.984 101.036 27.3273 101.265 27.5371C101.494 27.7469 101.875 27.8518 102.409 27.8518H104.155ZM119.381 28.4526H111.886L110.684 32H105.563L112.83 11.9171H118.494L125.761 32H120.583L119.381 28.4526ZM118.122 24.6763L115.634 17.324L113.173 24.6763H118.122ZM134.466 32.2289C133.074 32.2289 131.834 31.9905 130.747 31.5137C129.66 31.0369 128.802 30.3884 128.173 29.5683C127.543 28.7291 127.19 27.7946 127.114 26.7647H131.949C132.006 27.3178 132.264 27.766 132.721 28.1093C133.179 28.4526 133.742 28.6242 134.409 28.6242C135.019 28.6242 135.487 28.5098 135.811 28.2809C136.154 28.033 136.326 27.7183 136.326 27.3369C136.326 26.8791 136.088 26.5454 135.611 26.3356C135.134 26.1067 134.362 25.8588 133.293 25.5918C132.149 25.3248 131.196 25.0482 130.433 24.7621C129.67 24.457 129.012 23.9897 128.459 23.3604C127.906 22.7119 127.629 21.8441 127.629 20.757C127.629 19.8416 127.877 19.0119 128.373 18.2681C128.888 17.5052 129.632 16.9045 130.604 16.4658C131.596 16.0271 132.769 15.8078 134.123 15.8078C136.126 15.8078 137.699 16.3037 138.843 17.2954C140.007 18.2872 140.674 19.6032 140.846 21.2433H136.326C136.25 20.6903 136.002 20.2516 135.582 19.9274C135.182 19.6032 134.648 19.441 133.98 19.441C133.408 19.441 132.969 19.5555 132.664 19.7843C132.359 19.9941 132.206 20.2897 132.206 20.6712C132.206 21.1289 132.445 21.4722 132.922 21.7011C133.417 21.9299 134.18 22.1588 135.21 22.3877C136.393 22.6928 137.356 22.998 138.1 23.3031C138.843 23.5892 139.492 24.066 140.045 24.7335C140.617 25.382 140.913 26.2593 140.932 27.3655C140.932 28.3 140.665 29.1392 140.131 29.883C139.616 30.6077 138.863 31.1799 137.871 31.5995C136.898 32.0191 135.763 32.2289 134.466 32.2289ZM146.385 14.3774C145.527 14.3774 144.821 14.1295 144.268 13.6336C143.734 13.1186 143.467 12.4893 143.467 11.7455C143.467 10.9826 143.734 10.3532 144.268 9.85732C144.821 9.34237 145.527 9.0849 146.385 9.0849C147.224 9.0849 147.911 9.34237 148.445 9.85732C148.998 10.3532 149.274 10.9826 149.274 11.7455C149.274 12.4893 148.998 13.1186 148.445 13.6336C147.911 14.1295 147.224 14.3774 146.385 14.3774ZM148.817 16.0367V32H143.925V16.0367H148.817ZM158.856 32.2289C157.464 32.2289 156.224 31.9905 155.137 31.5137C154.05 31.0369 153.192 30.3884 152.562 29.5683C151.933 28.7291 151.58 27.7946 151.504 26.7647H156.338C156.396 27.3178 156.653 27.766 157.111 28.1093C157.569 28.4526 158.131 28.6242 158.799 28.6242C159.409 28.6242 159.876 28.5098 160.201 28.2809C160.544 28.033 160.715 27.7183 160.715 27.3369C160.715 26.8791 160.477 26.5454 160 26.3356C159.523 26.1067 158.751 25.8588 157.683 25.5918C156.539 25.3248 155.585 25.0482 154.822 24.7621C154.059 24.457 153.401 23.9897 152.848 23.3604C152.295 22.7119 152.019 21.8441 152.019 20.757C152.019 19.8416 152.267 19.0119 152.762 18.2681C153.277 17.5052 154.021 16.9045 154.994 16.4658C155.986 16.0271 157.159 15.8078 158.513 15.8078C160.515 15.8078 162.089 16.3037 163.233 17.2954C164.396 18.2872 165.064 19.6032 165.236 21.2433H160.715C160.639 20.6903 160.391 20.2516 159.972 19.9274C159.571 19.6032 159.037 19.441 158.37 19.441C157.797 19.441 157.359 19.5555 157.054 19.7843C156.748 19.9941 156.596 20.2897 156.596 20.6712C156.596 21.1289 156.834 21.4722 157.311 21.7011C157.807 21.9299 158.57 22.1588 159.6 22.3877C160.782 22.6928 161.745 22.998 162.489 23.3031C163.233 23.5892 163.881 24.066 164.435 24.7335C165.007 25.382 165.302 26.2593 165.321 27.3655C165.321 28.3 165.054 29.1392 164.52 29.883C164.005 30.6077 163.252 31.1799 162.26 31.5995C161.288 32.0191 160.153 32.2289 158.856 32.2289Z" fill="#374151"></path>
<defs>
<linearGradient id="paint0_linear_2_177" x1="43.4176" y1="11.9818" x2="0.388233" y2="28.7272" gradientUnits="userSpaceOnUse">
<stop offset="0.375" stop-color="#5EEB5F"></stop>
<stop offset="0.515" stop-color="#47D777"></stop>
<stop offset="0.71" stop-color="#2CBF93"></stop>
</linearGradient>
<clipPath id="clip0_2_177">
<rect y="0.796686" width="41.4065" height="41.4065" rx="6.17312" fill="white"></rect>
</clipPath>
</defs>
</svg>